<svg width="67" height="28" viewBox="0 0 67 28" fill="none" xmlns="http://www.w3.org/2000/svg">
<path fill-rule="evenodd" clip-rule="evenodd" d="M26.6734 9.74149C26.3147 8.90382 25.9162 7.97337 24.2539 8.54307V4.02299C24.2539 1.68888 20.3077 0 15.5 0C10.6923 0 6.74609 1.68888 6.74609 4.02299V23.977C6.74609 26.3111 10.6923 28 15.5 28C20.3077 28 24.2539 26.3111 24.2539 23.977V11.9349C25.7368 12.1295 26.0567 13.292 25.7798 14.4943L27.3057 14.7357C27.648 12.531 26.8959 11.0646 24.2539 10.9498V10.0303C25.269 9.54269 25.8897 10.3397 26.5262 11.1569C27.048 11.8271 27.5805 12.5108 28.3497 12.5108C29.4741 12.5108 30.3575 11.9476 31 10.8211L29.6347 8.97057C29.367 10.2043 28.7245 10.8211 27.7072 10.8211C27.1358 10.8211 26.9135 10.3021 26.6734 9.74149ZM17.8336 15.0132C17.0554 14.8243 16.2553 14.6301 15.4678 14.6301C14.6676 14.6301 13.8591 14.8283 13.0756 15.0205C11.03 15.5222 9.15435 15.9822 8.03964 12.7628C6.67993 8.83547 9.78388 9.70094 12.614 10.49C13.7121 10.7962 14.769 11.0909 15.5079 11.0897C16.218 11.0885 17.2376 10.8124 18.3038 10.5238C21.1095 9.76413 24.2376 8.91722 22.896 12.7628C21.7768 15.9705 19.8808 15.5102 17.8336 15.0132ZM11.561 12.1024C11.2163 11.9448 10.875 11.8 10.5529 11.6952C10.5079 12.2638 10.7539 12.7927 11.3026 13.308C11.7816 13.7579 12.2329 13.8104 12.7169 13.4217C12.8764 13.2464 13.0146 13.0486 13.1315 12.8283C12.9346 12.746 12.7296 12.6526 12.5202 12.5544C12.5257 12.5881 12.5285 12.6226 12.5285 12.6578C12.5285 13.0133 12.2408 13.3015 11.886 13.3015C11.5312 13.3015 11.2435 13.0133 11.2435 12.6578C11.2435 12.4211 11.371 12.2142 11.561 12.1024ZM8.67356 12.2555C8.88088 11.6323 9.34034 11.4695 9.92216 11.5447C9.82405 12.3461 10.1423 13.1005 10.8632 13.7776C11.0709 13.9728 11.2811 14.1157 11.4921 14.2074C11.1549 14.3234 10.7776 14.3969 10.3601 14.4279C11.9924 14.7345 13.163 14.2865 13.872 13.0837C14.5529 13.248 15.0181 13.0875 15.0181 12.175C14.7811 13.125 13.7016 12.4727 12.4961 11.7443C10.8427 10.7453 8.95224 9.60307 8.67356 12.2555ZM18.4752 12.5413C18.264 12.65 18.0568 12.7519 17.857 12.8373C17.9743 13.0593 18.1132 13.2585 18.2737 13.4349C18.7578 13.8236 19.2091 13.7711 19.6881 13.3213C20.2626 12.7817 20.5052 12.2273 20.4295 11.6281C20.0828 11.7314 19.7213 11.8969 19.3594 12.0799C19.5875 12.1787 19.7472 12.4062 19.7472 12.671C19.7472 13.0265 19.4595 13.3147 19.1047 13.3147C18.7498 13.3147 18.4622 13.0265 18.4622 12.671C18.4622 12.6266 18.4667 12.5832 18.4752 12.5413ZM16.1267 12.671C16.3694 13.0275 16.7065 13.1229 17.102 13.0683C17.8092 14.2926 18.9854 14.7502 20.6306 14.4411C20.2131 14.4101 19.8357 14.3366 19.4986 14.2206C19.7096 14.1289 19.9197 13.986 20.1275 13.7908C20.8604 13.1025 21.1771 12.3343 21.0633 11.5179C21.5537 11.5067 21.9887 11.7045 22.3171 12.2687C22.0048 9.38655 20.2164 10.5537 18.5476 11.6428C17.6076 12.2562 16.7055 12.8449 16.1267 12.671ZM15.8055 11.4641C15.8055 11.9127 16.0464 12.2687 16.448 12.3492C16.0464 12.4296 15.5646 12.1078 15.8055 11.4641ZM23.1295 4.02299C23.1295 5.59931 19.7401 7.08046 15.5 7.08046C11.2599 7.08046 7.87045 5.59931 7.87045 4.02299C7.87045 2.44667 11.2599 0.965517 15.5 0.965517C19.7401 0.965517 23.1295 2.44667 23.1295 4.02299Z" fill="#1D1D1F"/>
<ellipse cx="15.5012" cy="4.02326" rx="3.77461" ry="1.6092" fill="#FF6633"/>
<path d="M46.025 2.66406C46.3418 2.78482 46.5223 2.95915 46.5663 3.18726L46.6448 3.12561L46.7716 3.10019L46.7804 3.14471L46.7569 3.2369L47.1809 3.1524L47.7028 3.31984L47.7588 3.39666L47.6321 3.42187L47.6406 3.466C47.7573 3.75774 47.9324 4.05302 48.1658 4.35225C48.5336 4.87781 48.7817 5.4735 48.9103 6.13913L49.0278 6.74703C49.115 6.7295 49.2876 7.16051 49.5452 8.03986L49.5873 8.25734C49.5931 8.28669 49.5813 8.30442 49.5522 8.31013L49.6123 8.38617C49.6381 8.52032 49.6235 8.74902 49.5679 9.07208C49.7178 9.23735 49.8164 9.44202 49.8636 9.68629L49.8808 9.77473L49.9638 9.75819C50.022 9.74656 50.057 9.54446 50.0689 9.15206L50.1125 9.14339L50.0518 9.06341L50.0268 8.93458C50.1427 8.69682 50.1712 8.00007 50.1123 6.84395C50.1617 6.7031 50.1962 6.42732 50.2156 6.0166C50.3475 5.4215 50.4797 5.03422 50.6123 4.85457L50.6559 4.8459C50.6751 4.78897 50.6784 4.7285 50.666 4.66428L50.7492 4.64753L50.7515 4.87269C50.844 4.85417 50.9211 4.64379 50.9834 4.24115L50.9747 4.19683L51.0666 4.2246L51.058 4.18028C51.0289 4.18619 51.0115 4.17417 51.0057 4.14482C51.0507 4.13576 51.1034 4.09616 51.1637 4.02545C51.1689 4.05224 51.1848 4.06307 51.2112 4.05775C51.345 3.67146 51.4964 3.46147 51.6654 3.42778L51.7091 3.41912L51.7424 3.59227L51.4423 4.10365L51.3504 4.07587L51.2197 4.10207L51.2282 4.1464L51.3987 4.11232L51.4157 4.20096C51.2494 4.40406 51.1697 4.52461 51.1771 4.56204C51.0817 4.99088 50.971 5.94391 50.8451 7.42093L50.8537 7.46525L50.8932 7.45737C51.0057 7.15913 51.0636 6.77126 51.0675 6.29376L51.2075 5.63464L51.2549 5.6251C51.2603 5.50447 51.2854 5.43972 51.3306 5.43076L51.3741 5.42189C51.388 5.49438 51.4313 5.56116 51.5034 5.62203L51.514 5.67685C51.5336 5.6653 51.5507 5.65808 51.5652 5.65513L51.5739 5.69945C51.5307 5.93091 51.4979 6.22186 51.4751 6.57191L51.5187 6.56324C51.5848 6.55024 51.6259 6.30223 51.6424 5.81961C51.8139 5.78534 51.9194 5.49379 51.9588 4.94538L52.046 4.92785C52.0578 4.9897 52.0375 5.18886 51.9846 5.52551C52.0559 5.51113 52.1092 5.56038 52.1447 5.67325L52.1433 5.89939C52.1889 5.97937 52.2263 6.0166 52.2554 6.01069L52.2794 6.81696C52.2967 6.90541 52.3475 6.94126 52.432 6.92452L52.4398 6.9647C52.4605 7.99455 52.4252 9.18732 52.3335 10.5436C52.2389 11.0475 52.0545 11.7753 51.7806 12.7274C51.5697 13.3103 51.4497 13.6046 51.4206 13.6105L51.1794 13.7464C51.167 13.682 51.0873 13.6532 50.9405 13.6603C50.9539 13.7301 50.8209 13.801 50.5415 13.8737C50.4101 13.7186 50.2569 13.614 50.0817 13.5599C50.0739 13.5197 50.0221 13.4854 49.9262 13.457L49.8866 13.4651L49.9037 13.5536C49.6604 13.3735 49.5349 13.2636 49.5272 13.2234C48.9529 12.3959 48.6276 11.785 48.5514 11.3904C48.4409 10.961 48.3203 10.5643 48.1896 10.2L48.2168 10.1069L47.9787 9.34333L48.0223 9.33466L47.9616 9.25488L47.8106 8.47383L47.6877 8.05109L47.5134 8.08596C47.527 8.15569 47.4979 8.31052 47.4264 8.55065L47.5134 8.53332C47.4917 8.87489 47.4886 9.08587 47.5043 9.16644C47.5307 9.16112 47.5467 9.17313 47.5524 9.20288C47.4599 9.2212 47.4424 9.43513 47.4996 9.84447L47.5851 10.0533C47.5704 10.2178 47.5359 10.3444 47.4818 10.4335C47.4874 10.4628 47.5049 10.4748 47.534 10.4689C47.5557 10.8938 47.5493 11.1653 47.5146 11.2839C47.5514 11.3323 47.5727 11.3725 47.5791 11.4046C47.494 11.589 47.444 12.0184 47.4291 12.6929C47.4006 12.9998 47.3717 13.156 47.3426 13.1617L47.216 13.187C47.1536 13.5311 47.0562 13.7165 46.9242 13.7427C46.8597 13.6357 46.8063 13.5864 46.7641 13.5949L46.6768 13.6123L46.4707 13.6954C46.4457 13.5666 46.3011 13.5063 46.0367 13.5144L46.0382 13.2884C46.0101 13.1434 45.9395 13.0824 45.8259 13.105L45.7751 12.8434C45.7478 12.701 45.6627 12.6443 45.5202 12.6728C45.3936 12.018 45.4124 10.8883 45.5766 9.28364C45.571 9.2539 45.5535 9.24228 45.5244 9.24799L45.5237 8.79669L45.6194 8.82368L45.5688 8.56188C45.6664 8.54238 45.6981 8.40094 45.6636 8.13737L45.6053 7.83559C45.6712 7.82239 45.6941 7.71326 45.6737 7.50839L45.5999 7.33918C45.6095 7.24817 45.6291 7.19971 45.658 7.1936C45.6524 7.16425 45.6349 7.15223 45.6059 7.15814C45.5888 6.91348 45.5935 6.7035 45.62 6.52818C45.5801 6.47775 45.557 6.43638 45.5506 6.40427C45.601 6.36625 45.6406 6.34439 45.6696 6.33867C45.6266 6.27209 45.5708 6.13263 45.5025 5.92047C45.5394 5.91298 45.5793 5.81449 45.6221 5.62479C45.5822 5.57436 45.5595 5.53437 45.5537 5.50463L45.5973 5.49596L45.5366 5.41618C45.5661 4.64675 45.5349 3.79714 45.443 2.86795C45.5351 2.79112 45.6433 2.7403 45.7674 2.71548L45.8942 2.69006C45.9232 2.68435 45.9407 2.69617 45.9463 2.72572L46.025 2.66406ZM51.3984 5.02792L51.4242 5.16069C51.3687 5.17192 51.3491 5.22037 51.3658 5.30606L51.3222 5.31473C51.3166 5.28538 51.2937 5.24539 51.2538 5.19477C51.341 5.17743 51.3761 5.12424 51.3588 5.0358L51.3984 5.02792ZM50.6559 4.8459L50.673 4.93454L50.6458 5.02752L50.7414 5.05451L50.785 5.04584L50.7765 5.00152L50.6893 5.01886L50.7166 4.92588L50.7081 4.88136C50.7023 4.85201 50.685 4.83999 50.6559 4.8459Z" fill="#1D1D1F"/>
<path d="M53.2636 2.07904L53.5003 2.1277L53.51 2.07865L53.8291 2.19468L53.8204 2.23939C53.7267 2.22009 53.6736 2.24314 53.6606 2.30873L53.7669 2.27938L53.8107 2.28825L53.801 2.3373L53.6806 2.4612C53.6713 2.50868 53.7085 2.5656 53.7929 2.63238L53.8892 2.65208C53.9063 2.5658 53.9658 2.51163 54.0676 2.48917L54.0763 2.44465L54.2649 2.48307C54.2549 2.5335 54.428 2.73442 54.7843 3.08526C55.0654 3.43334 55.3262 3.93605 55.5672 4.59419C55.7995 5.57184 55.8935 6.17364 55.8487 6.39938L55.8004 6.38934C55.8572 6.93263 55.8948 7.57225 55.9135 8.30859C55.8691 8.36453 55.8431 8.41004 55.8361 8.44589C55.9327 8.46539 55.9579 8.75339 55.9115 9.30968L55.8448 9.39321L55.7857 10.6837C55.6771 10.9088 55.6184 11.0451 55.6089 11.0926L55.5998 11.3922L55.6436 11.4011L55.7498 11.3718L55.7304 11.4699L55.6637 11.5536C55.6957 11.5601 55.7087 11.5798 55.7023 11.6125C55.6701 11.606 55.6508 11.6188 55.6444 11.6515L55.7389 11.671C56.1461 11.0839 56.4404 10.6106 56.6219 10.2512C56.6219 10.1814 56.7188 10.068 56.9127 9.91036L57.6327 8.29684C57.6 8.27891 57.5835 8.16367 57.5835 7.95152C57.8101 7.46377 57.9548 7.2199 58.0174 7.2199C58.253 6.69867 58.6392 5.58825 59.176 3.88864L59.6097 2.86155C59.5769 2.79772 59.5606 2.74926 59.5606 2.71597C59.6799 2.71597 59.8557 2.56902 60.0884 2.27511H60.2852L60.3299 2.47052H60.3792C60.4447 2.47052 60.4775 2.43723 60.4775 2.37046L60.9562 2.42049H61.0545C61.0545 2.51761 61.0859 2.56606 61.1485 2.56606H61.1977C61.1977 2.46895 61.2305 2.42049 61.2962 2.42049H61.3453C61.4079 2.42955 61.4393 2.46284 61.4393 2.52056L61.5376 2.47052H61.5824V2.66594H61.6807C61.7435 2.66594 61.7747 2.63265 61.7747 2.56606V2.52056L61.7299 2.42049L61.9715 2.37046H62.0655L62.0163 2.47052V2.6161C62.0818 2.6161 62.1146 2.6811 62.1146 2.81151H62.4994C62.4994 2.8448 62.4829 2.86155 62.4502 2.86155C62.4651 3.02505 62.5141 3.1068 62.5977 3.1068V3.39755C62.6155 3.74622 62.7109 3.99147 62.8841 4.13389C62.8841 4.14906 62.9331 4.31276 63.0316 4.62478L63.1256 4.57475H63.1749L63.367 5.31089C63.455 5.31089 63.5025 5.39347 63.5092 5.55879L63.5101 5.60184H63.6578C63.6607 5.78662 63.7563 6.14573 63.9442 6.67917C63.9112 6.85784 63.8949 6.98805 63.8949 7.0698L63.9932 7.11983C63.9932 7.08654 64.0097 7.0698 64.0425 7.0698C64.0425 7.13658 64.1378 7.34854 64.3288 7.70607C65.3218 7.60915 65.9166 7.56069 66.1134 7.56069V7.66076H66.0149L66.0642 7.90168L65.1026 8.19696L65.1474 8.29684C65.1474 8.45147 65.0043 8.54839 64.7179 8.58779V8.63782H64.8118V8.73789L64.7179 8.88327V8.97861C64.9744 9.80576 65.183 10.5405 65.3441 11.1829C65.3441 11.2345 65.3755 11.2995 65.438 11.3783V11.4284C65.438 11.4616 65.4217 11.4782 65.3887 11.4782L65.8228 12.7509C65.793 12.7509 65.778 12.7675 65.778 12.8008C65.9151 12.8008 66.0584 13.3053 66.2075 14.3142C66.1001 14.3142 66.021 14.396 65.9704 14.5595H65.6795C65.6795 14.6595 65.5991 14.7096 65.438 14.7096C65.3247 14.5975 65.0355 14.4657 64.5704 14.3142C64.5704 14.2628 64.3302 14.1657 63.8501 14.0235C63.8501 13.987 63.7532 13.9051 63.5593 13.778V13.678L63.8949 13.728H64.0425C64.1051 13.728 64.1363 13.6963 64.1363 13.6325C64.1363 13.5294 63.8323 12.7295 63.2239 11.2329C63.2239 11.0328 63.0628 10.5269 62.7408 9.71495C62.1237 9.91194 61.4498 10.0589 60.719 10.1558C60.719 10.1223 60.7028 10.1058 60.67 10.1058C60.67 10.2027 60.5731 10.2677 60.3792 10.3012C59.8334 10.4284 59.5606 10.6087 59.5606 10.8419C59.3578 11.4965 59.1655 11.9523 58.9835 12.21V12.3599C59.0791 12.3599 59.1267 12.3918 59.1267 12.4554V12.5055L59.0327 12.4554H58.9344C58.839 12.71 58.7913 12.8735 58.7913 12.9461L58.6929 12.8963C58.6929 12.9812 58.5959 13.0795 58.402 13.1916C58.402 13.2523 58.2262 13.5462 57.8743 14.0733L57.7758 14.1188H57.682L57.4897 13.9734H57.4404C57.3778 13.9825 57.3466 14.0158 57.3466 14.0733C57.3762 14.1338 57.3912 14.1822 57.3912 14.2187L57.2973 14.2687C57.2555 14.2354 57.175 14.2187 57.0558 14.2187C57.0558 14.3156 56.9916 14.3641 56.8634 14.3641L56.0897 13.8281C55.8915 13.8281 55.6985 13.5918 55.5104 13.1195C55.4946 13.333 55.4436 13.6571 55.3576 14.0918L55.2818 14.4747C55.2378 14.6977 55.1851 14.8027 55.1236 14.7903L55.0767 15.2812L55.0203 15.5664C54.8477 16.0999 54.6362 16.4229 54.3859 16.5354C54.3194 16.588 54.2 16.628 54.0296 16.6561L54.009 16.6634C53.8754 16.7751 53.9704 16.7448 53.8611 16.8557C53.8243 16.872 53.7395 16.8805 53.6093 16.8817V16.8829C53.5302 16.9183 53.4297 16.927 53.3078 16.9087C53.1618 17.083 53.0491 17.188 52.97 17.2233L52.4935 17.218C52.0598 17.2696 51.5199 17.2792 50.8739 17.2469C50.377 17.0021 49.7884 16.8202 49.1079 16.7007C48.7693 16.4383 48.4681 16.3065 48.2036 16.3055C48.14 16.1586 47.6873 15.843 46.8457 15.3586C46.565 15.1994 46.3959 15.1324 46.3385 15.1583C46.1266 14.9319 45.9797 14.837 45.8977 14.8736L45.8203 14.6947C46.6233 15.0145 47.0549 15.1608 47.1148 15.1338L47.095 15.0883L46.692 14.8909L46.6739 14.8494L46.7191 14.8293C46.7275 14.8488 46.9832 14.9502 47.4865 15.1342C47.9894 15.318 48.414 15.4104 48.7599 15.4114C49.0402 15.465 49.2201 15.4738 49.2992 15.4384L49.3442 15.4183C49.3934 15.3964 49.4093 15.3545 49.3923 15.2926C48.2092 14.9904 47.5807 14.7534 47.5061 14.5817L47.4399 14.6658C47.35 14.7062 47.2598 14.6222 47.1697 14.4142L47.0838 14.4526L47.1216 14.5399L47.0764 14.5602C47.0237 14.4383 46.957 14.3256 46.8765 14.2226L46.9667 14.1824L46.9865 14.2279C48.5243 14.785 49.5817 15.0789 50.1583 15.109C50.1583 15.109 51.7798 15.4711 52.5327 15.034C53.8898 14.246 53.5418 8.90468 53.5418 8.90468L53.6476 7.37782C53.6628 6.30247 53.5621 5.15068 53.3458 3.92285C53.2421 3.64825 52.8243 2.56895 52.8685 2.34616C52.9383 2.19369 53.0009 2.12278 53.0563 2.1342L53.1967 2.16276C53.2091 2.10052 53.2314 2.07254 53.2636 2.07904ZM64.4323 9.95764C64.6262 10.709 64.7708 11.0848 64.8662 11.0848V11.0348C64.8662 10.9954 64.8499 10.8333 64.817 10.5484L64.8662 10.3032C64.8335 10.3032 64.817 10.2864 64.817 10.2531L64.7232 10.3032H64.6247C64.6247 10.0727 64.5607 9.95764 64.4323 9.95764ZM61.4717 6.01788C61.3197 6.22078 61.1588 6.57969 60.9887 7.09501C60.917 7.54631 60.7888 7.9856 60.6041 8.41286H60.5548V8.60827C60.7189 8.60827 61.2497 8.47807 62.1471 8.21745V8.16761C62.1471 8.09768 61.922 7.3964 61.4717 6.06319V6.01788ZM60.0162 3.65403H59.8239V3.7541H59.9224C59.4393 4.79341 59.1977 5.51143 59.1977 5.90836C59.2663 5.89319 59.3303 5.81144 59.39 5.66291C59.3602 5.60539 59.3454 5.54019 59.3454 5.4675C59.4199 5.4675 59.5645 5.19014 59.7791 4.63582L59.7301 4.53575V4.48571C59.9059 4.28281 60.0013 4.00565 60.0162 3.65403Z" fill="#1D1D1F"/>
<path d="M39.4333 13.6382C38.8548 13.6049 38.5655 13.4747 38.5655 13.2476C38.4851 13.2476 38.4046 13.2141 38.324 13.1475C38.324 13.1808 38.3077 13.1975 38.2749 13.1975C38.2749 13.1579 38.1466 13.0277 37.8903 12.8065C37.8903 12.667 37.7619 12.5203 37.5056 12.3656C37.2103 12.1899 36.8092 11.4887 36.3022 10.2614C36.197 10.1111 36.1343 10.0956 36.1146 10.2145C36.1444 10.4631 36.1593 10.7478 36.1593 11.0691C36.1593 11.1175 36.1444 11.1418 36.1146 11.1418L36.1593 11.2418V11.5371C36.1593 11.6007 36.1279 11.7629 36.0653 12.0235L36.1593 11.978C36.1921 12.3142 36.2084 12.5096 36.2084 12.5644H36.1593L36.2084 12.6598V13.0051L36.2576 13.2505C36.1921 13.2505 36.1593 13.299 36.1593 13.3961C36.1593 13.4233 36.1756 13.5535 36.2084 13.7869L35.6807 13.9823C35.4868 13.9823 35.3901 13.8202 35.3901 13.496H35.2916C35.2617 13.6232 35.2468 13.7369 35.2468 13.837H35.1975C35.1975 13.6307 35.0366 13.5005 34.7146 13.4459C34.7146 13.2279 34.6341 12.9657 34.473 12.6598C34.4104 12.693 34.3627 12.7098 34.3299 12.7098V12.7596H34.4282V12.8097C34.4282 12.84 34.4119 12.8552 34.379 12.8552L34.4282 12.955V13.0551C34.1688 12.8187 34.0391 12.3781 34.0391 11.7325C34.1047 11.06 34.1376 10.5782 34.1376 10.2872C34.1376 9.94506 34.1047 9.64347 34.0391 9.38286C34.0391 9.35272 34.0554 9.22231 34.0884 8.99203C34.0884 8.94968 34.0719 8.78598 34.0391 8.50134L34.0884 8.25589C34.0554 8.20113 34.0391 8.11938 34.0391 8.01044H34.0884C34.0256 7.83768 33.9781 7.59381 33.9451 7.27883H33.9943C33.5977 5.22129 33.2444 4.19282 32.9344 4.19282L32.8359 3.85183V3.8018C32.8449 3.73541 32.8776 3.70212 32.9344 3.70212H32.979L33.0775 3.75196C33.0775 3.71867 33.0938 3.70212 33.1266 3.70212L33.0775 3.60658C33.0864 3.5398 33.1176 3.50651 33.1713 3.50651C33.234 3.5398 33.2832 3.55655 33.3189 3.55655C33.3189 3.50809 33.3666 3.45963 33.4622 3.41117C33.656 3.54729 33.7528 3.69444 33.7528 3.85183C33.8453 3.85183 33.9899 3.77008 34.1867 3.60658L34.322 3.60185C34.322 3.73206 34.4501 3.79726 34.7066 3.79726V3.89733H34.6083V3.94264C34.7813 3.94264 34.9094 3.99268 34.993 4.09275L34.9482 3.99268V3.94264H35.0422C35.0422 4.00016 35.1392 4.14712 35.3329 4.3837C35.9085 5.82269 37.568 8.23915 38.3732 11.2385C38.4418 11.2385 38.506 11.3854 38.5655 11.6795C38.8878 11.325 39.1768 10.2313 39.4333 8.39811C39.4333 8.36778 39.417 8.35281 39.3843 8.35281C39.4409 7.56801 39.5213 7.17561 39.6256 7.17561C39.6256 7.21205 39.6421 7.26051 39.6749 7.32118C39.6094 7.45139 39.5764 7.63163 39.5764 7.86191C39.5764 7.9346 39.5929 7.99981 39.6256 8.05733C39.5929 8.43613 39.5452 8.72984 39.4826 8.93904C39.5153 9.16617 39.563 9.27983 39.6256 9.27983H39.6749C39.6749 9.14962 39.7063 9.08442 39.7687 9.08442V8.59806C39.8046 8.59806 39.8538 8.58151 39.9165 8.54802C39.8837 8.47849 39.8507 8.33153 39.818 8.10736C39.8806 8.07387 39.9283 8.05733 39.9612 8.05733L39.9165 7.81188C39.9463 7.81188 39.9612 7.79533 39.9612 7.76184H39.8672V7.6665C39.9954 7.6665 40.0595 7.29065 40.0595 6.53934C40.1043 6.31812 40.152 6.17136 40.2026 6.09848C40.1402 6.09848 40.1088 6.05002 40.1088 5.9529V5.41217H40.0595V5.36686C40.0595 5.33357 40.076 5.31683 40.1088 5.31683L40.0595 5.21676C40.1342 5.14407 40.1982 4.93211 40.2519 4.58069L40.2026 4.48515C40.2683 4.364 40.3011 4.23359 40.3011 4.09432L40.2519 3.99425H40.3504V3.94422H40.2519V3.84888C40.4041 3.51557 40.6291 3.25338 40.9273 3.0625C41.2166 3.11726 41.3612 3.18227 41.3612 3.25811V3.35798C41.0033 3.50356 40.7141 3.78072 40.4934 4.18966L40.5427 4.28973L40.3949 5.36686H40.4934L40.3949 5.51224C40.3949 5.58493 40.4114 5.65013 40.4442 5.70765L40.3504 5.9529L40.3949 6.19835L40.3504 6.29389L40.3949 6.58937V6.73475C40.3325 7.05288 40.3011 7.23313 40.3011 7.27548C40.3011 7.34817 40.3176 7.41337 40.3504 7.47089C40.2848 7.63459 40.2356 7.71634 40.2026 7.71634L40.2519 7.81188C40.2519 7.97558 40.2206 8.05733 40.158 8.05733L40.2026 8.1574L40.1088 8.30277C40.1415 8.48144 40.158 8.61165 40.158 8.6934C40.1251 8.6934 40.1088 8.71014 40.1088 8.74343H40.2026C40.2026 8.41624 40.2833 8.10578 40.4442 7.81188L40.3949 7.52093V7.47089C40.5262 7.47089 40.5919 7.34068 40.5919 7.08007H40.6367L40.5919 6.9802C40.6664 6.87402 40.7141 6.72726 40.735 6.53934C40.7022 6.48497 40.6858 6.40302 40.6858 6.29389H40.735L40.6858 6.19835L40.7842 6.04864V6.00294C40.7842 5.92729 40.7678 5.86209 40.735 5.80772C40.7976 5.57725 40.8453 5.46221 40.8781 5.46221C40.8453 5.41966 40.8288 5.33791 40.8288 5.21676C40.8618 5.21676 40.8781 5.20179 40.8781 5.17145L40.8288 4.97131C40.8736 4.82298 40.9378 4.74261 41.0212 4.7304L40.9766 4.63052C41.0064 4.57281 41.0212 4.5078 41.0212 4.43511H41.1196C41.0869 4.87459 41.0704 5.20021 41.0704 5.41217V5.75769C40.975 5.75769 40.9273 5.7894 40.9273 5.85303C41.0227 5.85303 41.0704 6.01673 41.0704 6.34392H41.1196C41.2478 6.09237 41.312 5.94542 41.312 5.90307C41.2792 5.83944 41.2629 5.79098 41.2629 5.75769L41.312 5.26679C41.2792 5.20317 41.2629 5.15471 41.2629 5.12142C41.3612 5.12142 41.4105 5.05641 41.4105 4.92581H41.5043V4.97131C41.3761 5.64403 41.312 6.75445 41.312 8.30277H41.2629C41.2629 8.33606 41.2792 8.35281 41.312 8.35281L41.2629 8.59806V8.6934L41.4551 8.59806V8.64356C41.3924 9.30721 41.2478 10.3189 41.0212 11.6795C41.0212 12.0704 40.7811 12.6095 40.3011 13.2976C40.3011 13.4973 40.0118 13.611 39.4333 13.6382Z" fill="#1D1D1F"/>
<path d="M43.6822 12.4938H43.3959C43.3959 12.4302 43.2989 12.365 43.1052 12.2984C42.6221 11.7772 42.3805 10.4229 42.3805 8.23532C42.3507 8.23532 42.3359 8.17032 42.3359 8.03991C42.3359 8.00662 42.3507 7.98987 42.3805 7.98987L42.3359 7.74462V7.30357C42.3359 7.27323 42.3507 7.25826 42.3805 7.25826C42.3507 7.19463 42.3359 7.1446 42.3359 7.10816L42.3805 5.93568H42.4298C42.4298 5.90239 42.4135 5.88565 42.3805 5.88565C42.4222 5.44341 42.4552 5.1828 42.479 5.1038C42.479 5.07051 42.4625 5.05397 42.4298 5.05397C42.4298 5.02048 42.4463 4.97202 42.479 4.90859C42.5118 4.08459 42.5281 3.43157 42.5281 2.94974C42.5281 2.4165 42.4641 1.73019 42.3359 0.891021C42.4759 0.630406 42.6205 0.5 42.7696 0.5C42.9546 0.5 43.0665 0.581947 43.1052 0.745447C43.3408 0.80021 43.5494 0.96371 43.7315 1.23654C43.7315 1.3242 43.7642 1.42112 43.8297 1.52729L43.9238 1.48179H43.973C44.0356 1.92718 44.0669 2.17105 44.0669 2.2134H44.1653V2.11806C44.3024 2.11806 44.3829 2.34519 44.4067 2.79983C44.4515 2.79983 44.5157 3.02854 44.599 3.48594C44.632 3.48594 44.6483 3.50269 44.6483 3.53598C44.6483 3.56927 44.632 3.58601 44.599 3.58601L44.7423 4.61311C44.7096 4.78902 44.6931 4.93577 44.6931 5.05397V5.59017C44.6931 5.66601 44.6781 5.73279 44.6483 5.79031C44.6781 5.85078 44.6931 5.89924 44.6931 5.93568C44.5767 7.14145 44.4814 7.74462 44.4067 7.74462L44.456 8.08994V8.97147C44.456 9.04415 44.4397 9.10936 44.4067 9.16688C44.4397 9.2246 44.456 9.2896 44.456 9.36249V9.41232C44.456 9.47615 44.4232 9.50786 44.3577 9.50786C44.3577 9.47457 44.3412 9.45783 44.3084 9.45783V9.50786L44.4067 9.65324V9.75331L44.2146 11.3211L43.973 11.712C43.8656 11.712 43.7687 11.7604 43.6822 11.8575C43.6822 11.8906 43.6985 11.9074 43.7315 11.9074L43.6822 12.3985V12.4938Z" fill="#1D1D1F"/>
<path fill-rule="evenodd" clip-rule="evenodd" d="M35.8141 26.3054L34.8884 26.2111L34.7985 26.2583C34.4212 26.1641 34.1441 26.0256 33.967 25.843C33.5669 25.5144 33.367 25.2689 33.367 25.1061C33.367 25.0777 33.3356 24.9535 33.2727 24.7335V24.6908L33.3198 24.5965C33.2799 24.5965 33.1885 24.4738 33.0456 24.2282V24.091C33.0456 24.0596 33.1526 23.9668 33.367 23.8125L33.3198 23.5814C33.8599 23.1817 34.2299 22.9818 34.4298 22.9818V23.0289C34.4298 23.1516 34.3213 23.3973 34.1041 23.7656V23.8125C34.1699 23.8125 34.3399 23.8584 34.6141 23.9497L35.3986 23.8597V23.9069C35.6042 23.8755 35.8043 23.8283 35.9986 23.7656L36.32 23.8125C36.7656 23.7414 37.3199 23.4643 37.9829 22.9818C38.1715 22.8247 38.3558 22.5791 38.5358 22.2451C38.69 22.0823 38.767 21.928 38.767 21.7825C37.0556 21.4142 36.1327 21.1829 35.9986 21.0887C35.9986 21.1513 35.967 21.1829 35.9042 21.1829C34.8214 20.9229 34.1913 20.6775 34.014 20.4462C33.8827 20.4462 33.6512 20.2921 33.3198 19.9836C33.2398 19.975 33.0713 19.7751 32.814 19.3839C32.7399 19.3839 32.6628 19.277 32.5827 19.0626C32.4597 19.0626 32.3984 18.9085 32.3984 18.6001C32.3984 18.0863 32.5511 17.6392 32.8569 17.2596C33.0427 16.9455 33.2583 16.6843 33.5041 16.4758C33.6498 16.3302 33.7426 16.1773 33.7828 16.0174C34.2541 15.6777 34.5314 15.5078 34.6141 15.5078C35.3085 15.5791 35.8156 15.7018 36.1357 15.876C36.8442 16.253 37.1986 16.607 37.1986 16.9382V17.3067H37.1043V17.3537L37.1514 17.448L36.92 17.4909C36.8199 17.4909 36.5899 17.3682 36.2299 17.1224C35.6984 17.3394 35.3757 17.4937 35.2613 17.5852C35.2356 17.7307 35.0356 17.9149 34.6613 18.1375C34.6613 18.1889 34.5071 18.3432 34.1985 18.6001C34.0127 18.8799 33.9199 19.0485 33.9199 19.1057C34.537 19.3825 35.5527 19.6594 36.967 19.9366C38.2473 20.245 39.0314 20.5533 39.3201 20.8617C40.2457 21.3213 40.7087 21.6741 40.7087 21.9195H40.6143C40.6143 21.8395 40.4458 21.6869 40.1086 21.4611H40.0143V21.504C40.1543 21.8811 40.37 22.128 40.6615 22.2451C40.6615 22.285 40.7386 22.4235 40.893 22.6604C40.83 22.6691 40.7986 22.699 40.7986 22.7505L40.8458 23.1659C40.8458 23.4002 40.6615 23.5842 40.2929 23.7186C40.2929 23.8185 40.1543 23.9726 39.8772 24.1811C39.8772 24.3353 39.6299 24.5509 39.1358 24.8278C39.1358 24.8876 38.9357 25.072 38.5358 25.3803C38.4444 25.4175 38.3985 25.4646 38.3985 25.5216H38.3515L38.2614 25.4746C38.2614 25.6972 37.9686 25.913 37.3829 26.1212C37.3829 26.0271 37.3513 25.98 37.2885 25.98C37.1886 26.1198 37.0199 26.2126 36.7829 26.2583L36.5042 26.2111H36.4141C36.3456 26.2111 36.2843 26.2269 36.2299 26.2583L36.1357 26.2111C36.0812 26.2427 36.0199 26.2583 35.9514 26.2583L35.8613 26.2111L35.8141 26.3054ZM44.7279 25.7943H44.6335C44.3164 25.7943 44.1007 25.7486 43.9863 25.6573L43.802 25.7044C43.7535 25.7044 43.662 25.643 43.5278 25.5201L43.4335 25.563C43.2193 25.5143 43.0192 25.3302 42.8334 25.0103L42.7393 25.0575H42.6492C42.0034 24.5265 41.6806 24.1725 41.6806 23.9954C41.1576 22.916 40.8963 21.6854 40.8963 20.3034C40.8734 20.3034 40.8262 19.8579 40.7547 18.9671H40.8019C40.7391 18.8099 40.7077 18.703 40.7077 18.6458C40.7306 18.4601 40.762 18.3673 40.8019 18.3673L40.5234 17.031C40.5805 17.031 40.6277 16.8925 40.6648 16.6155C40.7876 16.6155 40.8491 16.5842 40.8491 16.5214V16.4743H40.8963L41.0334 16.5686C41.0991 16.5686 41.1905 16.4758 41.3077 16.2901C41.3419 16.2901 41.3891 16.2743 41.4491 16.243V16.3373L41.6806 16.2901C41.6806 16.3844 41.6949 16.4314 41.7235 16.4314C41.7662 16.4 41.8435 16.3844 41.9548 16.3844C41.9548 16.4555 42.0476 16.5012 42.2334 16.5214V16.5686L42.1864 16.6584C42.2492 16.6584 42.2806 16.6898 42.2806 16.7526H42.3235C42.3549 16.7526 42.4792 16.7212 42.6963 16.6584H42.8334V16.9839L42.7393 17.1209L42.8806 17.2152L42.7393 17.9049C42.7506 17.9676 42.782 17.999 42.8334 17.999C42.802 18.3588 42.7864 18.6202 42.7864 18.7828V18.8299L42.8334 19.2881H42.7864L42.8334 19.3824V19.4296C42.8334 19.9236 42.8791 20.8145 42.9705 22.1022H42.9235C42.9549 22.1736 43.0177 22.4205 43.1121 22.8433L43.0649 23.0746C43.1249 23.1745 43.1548 23.2658 43.1548 23.3486L43.1121 23.4429C43.2635 23.4429 43.3393 23.597 43.3393 23.9053C43.3905 23.9053 43.4535 23.9967 43.5278 24.1795C43.6792 24.1795 44.0478 23.811 44.6335 23.0746C44.9735 22.5006 45.3121 21.5153 45.6493 20.1193V19.4723L45.6021 19.1511H45.6493L45.6021 19.0611C45.6021 18.99 45.6179 18.927 45.6493 18.8728C45.5579 17.6678 45.5122 16.9454 45.5122 16.7056C45.6235 16.5571 45.7622 16.4342 45.9279 16.3373V16.2001H46.0178V16.2901H46.1549C46.3123 16.0759 46.4507 15.9688 46.5707 15.9688L46.6179 16.0588L46.7122 16.0159H46.8021V16.1529H46.8493L47.0808 16.1059L47.3592 16.2901V16.4314H47.5435V16.3373C47.6037 16.3686 47.6494 16.3844 47.6808 16.3844C47.7408 16.3529 47.7865 16.3373 47.8179 16.3373C48.0351 16.537 48.1436 16.7826 48.1436 17.0737C48.1122 17.0737 48.0964 17.0895 48.0964 17.1209C48.1566 17.1324 48.1865 17.1638 48.1865 17.2152C48.0951 17.2867 48.0494 17.3936 48.0494 17.5365H48.0022L47.9123 17.2581C47.8493 17.2694 47.8179 17.3008 47.8179 17.3522V17.999C47.8179 18.2903 47.8021 18.6443 47.7707 19.0611L47.8179 19.2881C47.6266 20.5331 47.4423 21.3642 47.2651 21.781C47.2335 21.781 47.2179 21.7968 47.2179 21.8281V22.2436L47.2651 22.702C47.1421 22.702 47.0808 22.8262 47.0808 23.0746H47.0336C47.0336 23.1745 47.0951 23.5127 47.2179 24.0895H47.1707L47.2179 24.1795V24.4109C47.2179 24.4794 47.2023 24.5408 47.1707 24.595C47.2023 24.655 47.2179 24.7007 47.2179 24.732C47.1493 24.732 47.0722 24.5792 46.9864 24.2739H46.9435C46.9435 24.3023 46.9279 24.3166 46.8965 24.3166C46.9565 24.6422 47.0336 24.9661 47.128 25.2888C47.0964 25.3489 47.0808 25.3946 47.0808 25.426C47.0321 25.426 46.9249 25.1031 46.7592 24.458H46.7122L46.665 24.5479V24.595H46.7592V24.8733H46.8493C46.8493 24.9049 46.8335 24.9205 46.8021 24.9205L46.8493 25.0103V25.1475L46.7592 25.1046C46.7592 25.1332 46.7436 25.1475 46.7122 25.1475C46.6179 24.9646 46.5094 24.6264 46.3864 24.1324H46.2965C46.2536 24.1324 46.1923 24.2709 46.1122 24.5479C46.0522 24.5479 45.8978 24.7177 45.6493 25.0575L45.6965 25.1475C45.6136 25.2502 45.3979 25.343 45.0493 25.426C44.8349 25.6031 44.7279 25.7258 44.7279 25.7943ZM47.4424 26.5372H47.3053C47.2737 26.3117 47.2423 26.1732 47.2109 26.1218C47.2423 26.0705 47.2581 25.9935 47.2581 25.8906H47.3523V26.0746L47.3053 26.1646C47.3653 26.196 47.411 26.2116 47.4424 26.2116V26.2588L47.3523 26.396C47.4123 26.4073 47.4424 26.4388 47.4424 26.4901V26.5372ZM58.259 27.4965L58.0747 27.4067C58.0147 27.4353 57.9675 27.4496 57.9333 27.4496L57.7489 27.4067C57.6891 27.4353 57.6434 27.4496 57.6118 27.4496C57.6118 27.3698 57.5033 27.3083 57.2861 27.2654C57.2176 27.0853 57.0946 26.9327 56.9174 26.8071C56.7346 26.4759 56.596 26.0147 56.5018 25.4236L56.5488 25.3293C56.5174 25.2693 56.5018 25.2237 56.5018 25.1923H56.5488C56.4946 25.0924 56.4331 24.6613 56.3645 23.8987H56.4117C56.3547 23.7132 56.2003 22.2684 55.9488 19.5644C55.9174 19.5644 55.8717 19.3175 55.8117 18.8235C55.8117 18.7921 55.8275 18.7463 55.8589 18.6863C55.8589 18.3666 55.6731 18.0124 55.3018 17.6242C55.3018 17.604 55.2247 17.3884 55.0703 16.9772C55.1047 16.8402 55.2132 16.7333 55.396 16.6562H55.4431V16.7461C55.6603 16.6861 55.7831 16.6562 55.8117 16.6562H55.8589V16.9345H55.9488L55.9018 17.0244V17.0715C55.9646 17.0715 55.996 17.0873 55.996 17.1187L56.3645 16.8874H56.4117V16.9345C56.3803 16.9915 56.3645 17.0372 56.3645 17.0715C56.3961 17.0715 56.4117 17.0873 56.4117 17.1187C56.4717 17.0873 56.5174 17.0715 56.5488 17.0715C56.8174 17.0888 57.0946 17.3342 57.3803 17.8084C57.3803 18.0111 57.4875 18.3195 57.7019 18.7335C57.9188 20.7065 58.0275 21.7831 58.0275 21.963H58.0747C58.7747 21.8687 59.2976 21.8215 59.6433 21.8215H59.8276C60.1048 21.8215 60.2433 21.6531 60.2433 21.3162H60.2905L60.2433 21.2219V21.1792C60.3975 21.1792 60.5519 20.2552 60.7063 18.4078C60.6433 18.4078 60.6119 18.3779 60.6119 18.318V18.0395C60.7776 18.0395 60.9006 17.9938 60.9805 17.9025H61.0748L61.1177 18.1338C61.0889 18.1338 61.0748 18.1481 61.0748 18.1765L61.1647 18.2237C61.1647 18.1923 61.1805 18.1765 61.2119 18.1765L61.1647 18.0867V18.0395C61.3676 18.0395 61.4906 17.9469 61.5333 17.7612H61.6277C61.6277 17.7954 61.6435 17.8425 61.6748 17.9025L61.7648 17.8555H61.8119C61.8119 17.9582 61.8275 18.0352 61.8591 18.0867L61.949 18.0395C62.012 18.0482 62.0434 18.0796 62.0434 18.1338V18.1765H61.949V18.2237H62.0906L62.1333 18.1338C62.1049 18.0737 62.0906 18.0269 62.0906 17.9925H62.1805C62.3663 18.1552 62.4591 18.2937 62.4591 18.4078H62.5962L62.6904 18.3607L62.6434 18.2708C62.652 18.2081 62.6821 18.1765 62.7333 18.1765C62.962 18.1765 63.0863 18.2237 63.1064 18.318V18.4078C63.1064 18.4708 63.0592 18.5021 62.9648 18.5021C63.0878 18.822 63.1491 19.0218 63.1491 19.1018C62.9977 19.7129 62.9221 20.4809 62.9221 21.4062L63.012 21.4534C63.012 21.4218 63.0276 21.4062 63.0592 21.4062C63.0592 21.469 63.0748 21.5002 63.1064 21.5002L63.2905 21.4062V21.4534C63.2905 21.5447 63.1677 21.606 62.9221 21.6373V21.9158H63.2435L63.8435 21.7786C63.8435 21.8074 63.8593 21.8215 63.8905 21.8215C63.8905 21.7617 64.0135 21.7161 64.2592 21.6845V21.7317C64.2592 21.7716 64.0592 21.8787 63.6592 22.0528C63.6592 22.1755 63.382 22.314 62.8277 22.4683V22.5624L63.0592 22.5155C63.0906 22.5155 63.1064 22.531 63.1064 22.5624C63.1664 22.531 63.2121 22.5155 63.2435 22.5155H63.3376V22.5624C62.9663 22.6081 62.7805 22.6695 62.7805 22.7466C62.7805 22.8381 62.7647 22.8838 62.7333 22.8838L62.7805 22.9779C62.7205 23.2378 62.6904 23.3906 62.6904 23.4363L62.7333 23.7147C62.7333 23.9975 62.6419 24.704 62.4591 25.8348H62.3648V25.745H62.3221V26.3444H62.1805L61.9962 26.2074C61.9962 26.2588 61.9191 26.3973 61.7648 26.6229C61.7648 26.9513 61.6734 27.1355 61.4906 27.1756C61.4906 27.2669 61.3362 27.3126 61.0276 27.3126H60.9805C60.9805 27.2212 60.9348 27.1756 60.8434 27.1756H60.7962V26.8071C60.7962 26.7358 60.7806 26.6743 60.749 26.6229C60.749 26.5915 60.7648 26.5757 60.7962 26.5757C60.7962 26.513 60.7806 26.4814 60.749 26.4814C60.8205 25.3135 60.882 24.7298 60.9335 24.7298L60.8905 24.6355C60.9505 24.4241 60.9805 24.2401 60.9805 24.0831V23.7147L61.0276 23.4834C60.9533 23.4235 60.8918 23.3936 60.8434 23.3936C60.389 23.4849 60.0804 23.5605 59.9175 23.6204V23.8987C59.8376 23.8987 59.7304 24.0686 59.5961 24.4085L59.1804 25.3293C59.1204 25.3607 59.0747 25.3765 59.0433 25.3765V25.745C59.0433 25.819 58.9662 25.9575 58.8118 26.1603C58.8118 26.3429 58.7804 26.4345 58.7176 26.4345L58.7646 26.5286C58.5189 26.7913 58.3961 26.9455 58.3961 26.9914V27.2225L58.4433 27.3126C58.3403 27.3126 58.2789 27.3738 58.259 27.4965ZM60.485 21.4022C60.6306 20.937 60.7378 20.6899 60.8064 20.6613C60.775 20.5386 60.7293 20.4315 60.6693 20.3401L60.7592 20.2031H60.7165C60.665 20.2031 60.602 20.3102 60.5277 20.5243L60.5749 20.7556C60.5606 20.8783 60.5149 20.9398 60.4378 20.9398V20.9867L60.485 21.077H60.3906V21.3081C60.4021 21.371 60.4335 21.4022 60.485 21.4022ZM61.6331 25.1915C61.7074 25.1915 61.7531 25.0371 61.7702 24.7287C61.7416 24.6689 61.7275 24.6233 61.7275 24.5917H61.8174V24.4077C61.8174 24.3448 61.7873 24.3134 61.7275 24.3134L61.7702 24.0821V23.6237C61.7702 23.5924 61.786 23.5766 61.8174 23.5766L61.7702 23.4825C61.7702 23.4511 61.786 23.4052 61.8174 23.3454L61.7275 22.93C61.7559 22.93 61.7702 22.9142 61.7702 22.8828H61.6803V23.2084C61.6803 23.2769 61.6645 23.3382 61.6331 23.3924C61.6331 23.424 61.6489 23.4396 61.6803 23.4396L61.6331 23.6666V23.7607L61.6803 24.0821H61.6331L61.6803 24.1764V24.2663C61.6803 24.329 61.6489 24.3606 61.5859 24.3606C61.6489 24.4604 61.6803 24.5533 61.6803 24.6388V24.8659L61.6331 25.1915ZM61.3051 25.6025C61.3653 25.3712 61.3952 25.2327 61.3952 25.187C61.3952 25.1557 61.3794 25.1399 61.348 25.1399L61.3952 24.9086V24.4032L61.348 23.8463H61.3952L61.348 23.7563V23.4351C61.348 23.4037 61.3638 23.3879 61.3952 23.3879C61.3638 23.348 61.348 23.2394 61.348 23.0625C61.288 23.074 61.2581 23.1054 61.2581 23.1568V23.478C61.2581 23.6551 61.2423 23.7637 61.2109 23.8034C61.2423 23.9692 61.2581 24.1075 61.2581 24.2191V25.6025H61.3051ZM59.2348 24.4493C59.2348 24.3494 59.342 24.1352 59.5562 23.8068L59.7876 23.3443V23.25H59.7406C59.5634 23.4472 59.4248 23.6941 59.3249 23.9911C59.3048 23.9911 59.2434 24.0681 59.1406 24.2224V24.4493H59.2348ZM58.168 25.1901C58.351 24.99 58.6895 24.4819 59.1838 23.6652C59.1838 23.6366 59.1996 23.6223 59.231 23.6223V23.7593H59.3211C59.3211 23.6309 59.3525 23.4768 59.4153 23.2969H59.3681V23.344C59.3367 23.344 59.3211 23.3282 59.3211 23.2969C58.8152 23.4823 58.5238 23.5752 58.4467 23.5752C58.2381 23.4838 58.1153 23.4382 58.0781 23.4382V23.5752C58.0781 23.6437 58.0924 23.7051 58.1209 23.7593C58.1209 23.7907 58.1067 23.8065 58.0781 23.8065C58.1067 23.9465 58.1366 24.4076 58.168 25.1901ZM65.454 27.1783H65.1798C65.1798 27.1183 65.0869 27.0569 64.9012 26.9941C64.4383 26.5029 64.207 25.2266 64.207 23.165C64.1784 23.165 64.1641 23.1037 64.1641 22.9808C64.1641 22.9494 64.1784 22.9337 64.207 22.9337L64.1641 22.7025V22.2869C64.1641 22.2585 64.1784 22.2442 64.207 22.2442C64.1784 22.1842 64.1641 22.1371 64.1641 22.1027L64.207 20.9977H64.254C64.254 20.9664 64.2384 20.9506 64.207 20.9506C64.2469 20.5338 64.2783 20.2882 64.3012 20.2139C64.3012 20.1824 64.2856 20.1668 64.254 20.1668C64.254 20.1354 64.2698 20.0896 64.3012 20.0298C64.3327 19.2532 64.3483 18.6378 64.3483 18.1837C64.3483 17.6812 64.2869 17.0344 64.1641 16.2435C64.2984 15.9979 64.437 15.875 64.5798 15.875C64.757 15.875 64.864 15.9522 64.9012 16.1063C65.1269 16.1579 65.327 16.312 65.5012 16.5691C65.5012 16.6517 65.5328 16.7431 65.5956 16.8431L65.6855 16.8003H65.7327C65.7927 17.22 65.8228 17.45 65.8228 17.4899H65.917V17.3999C66.0483 17.3999 66.1256 17.614 66.1484 18.0424C66.1913 18.0424 66.2528 18.258 66.3327 18.689C66.3641 18.689 66.3799 18.7048 66.3799 18.7362C66.3799 18.7676 66.3641 18.7833 66.3327 18.7833L66.4698 19.7513C66.4384 19.9171 66.4228 20.0554 66.4228 20.1668V20.6721C66.4228 20.7436 66.4083 20.8065 66.3799 20.8607C66.4083 20.9177 66.4228 20.9634 66.4228 20.9977C66.3113 22.1341 66.2199 22.7025 66.1484 22.7025L66.1956 23.028V23.8587C66.1956 23.9272 66.1798 23.9887 66.1484 24.0429C66.1798 24.0973 66.1956 24.1586 66.1956 24.2273V24.2742C66.1956 24.3344 66.164 24.3643 66.1012 24.3643C66.1012 24.3329 66.0856 24.3171 66.054 24.3171V24.3643L66.1484 24.5013V24.5956L65.9641 26.0733L65.7327 26.4415C65.6299 26.4415 65.5371 26.4871 65.454 26.5787C65.454 26.61 65.4698 26.6256 65.5012 26.6256L65.454 27.0884V27.1783ZM50.5625 17.7111C50.9901 17.5522 51.3916 17.4192 51.767 17.3125H51.8081V17.3905C51.6738 17.3981 51.6067 17.4254 51.6067 17.4727C51.3656 17.4876 51.2448 17.541 51.2448 17.6329H51.1256C51.036 17.6329 50.9429 17.6727 50.846 17.7521H50.5625V17.7111ZM55.1482 23.8056H55.1891C55.1891 23.7484 55.1493 23.6677 55.0698 23.5633V23.4441L55.1072 23.3621L54.8685 22.9598C54.426 22.5124 53.9164 22.1112 53.3396 21.7561C52.7805 21.4256 52.4994 21.2379 52.497 21.1934C52.2757 21.0989 51.6865 20.7387 50.7294 20.1127C50.205 19.817 49.8444 19.509 49.6481 19.1884C49.6605 19.0816 49.7003 19.0282 49.7673 19.0282C49.7673 18.8494 50.5866 18.5598 51.2828 18.2741C51.6854 18.1647 51.8867 18.0715 51.8867 17.9945C52.5804 17.7635 52.9681 17.6158 53.0502 17.5511C53.4529 17.4617 53.6543 17.3946 53.6543 17.3499C53.7139 17.3499 53.7674 17.4444 53.8146 17.6332L53.7736 17.7114C53.7736 17.7661 53.8133 17.7932 53.8928 17.7932V17.8343C53.8133 17.8343 53.7736 17.8742 53.7736 17.9536C53.8009 18.0877 53.8817 18.2616 54.016 18.4753H54.1352L54.0942 18.3934H54.2136C54.3305 18.0455 54.4249 17.8716 54.4969 17.8716V17.7932C54.4969 17.6616 54.5367 17.5276 54.6162 17.3907C54.5889 17.3438 54.5753 17.2901 54.5753 17.2307C54.5629 17.1388 54.3491 16.9649 53.9339 16.7091L53.2516 16.5078H53.2105C53.0266 16.5078 52.8265 16.5487 52.6103 16.6307C51.8568 16.7896 51.3748 16.9498 51.1634 17.1115L51.0814 17.0705H51.003C50.8663 17.1773 50.6923 17.2443 50.481 17.2717L49.0752 17.9126C48.496 18.2108 48.174 18.5189 48.1094 18.8368C48.1094 18.8765 48.1764 19.0504 48.3107 19.3584L48.2697 19.4405C48.2697 19.4629 48.3232 19.5821 48.4302 19.7982C48.4302 19.8702 48.4973 19.951 48.6316 20.0405C48.6316 20.1175 48.7519 20.2777 48.9931 20.5211C49.294 20.7025 49.5214 20.8765 49.6756 21.0428C49.944 21.09 50.0783 21.1572 50.0783 21.244C50.6053 21.5323 50.8998 21.7199 50.962 21.8069C51.6406 22.1819 52.3367 22.6228 53.0502 23.1298C53.5051 23.3632 53.7327 23.5247 53.7327 23.6142C53.4566 23.8351 52.64 24.0092 51.2828 24.1359C51.2828 24.1086 51.2691 24.0948 51.2416 24.0948C51.1944 24.1221 51.1409 24.1359 51.0814 24.1359H49.5153C49.0876 24.1359 48.8738 24.2961 48.8738 24.6165V24.7359C48.9758 24.7359 49.0428 24.8304 49.0752 25.019L49.3139 25.1794C49.4283 25.2587 49.5089 25.2986 49.5563 25.2986C49.7079 25.4053 49.8147 25.4586 49.8769 25.4586C49.8769 25.5954 50.1318 25.6899 50.6414 25.7421V25.7792L50.6003 25.8611C50.819 25.8611 50.9533 25.8873 51.003 25.9394H51.1223L51.3647 25.9021L51.4429 25.9394C51.8284 25.9071 52.1626 25.8676 52.4461 25.8202C52.4461 25.8475 52.4598 25.8611 52.4871 25.8611C53.0168 25.7967 53.5523 25.6624 54.0942 25.4586C54.2658 25.4191 54.4137 25.2451 54.538 24.9371H54.8176L54.8997 24.6575V24.5346C54.8997 24.4724 55.2303 23.982 55.1482 23.8056Z" fill="#1D1D1F"/>
</svg>
