<svg width="221" height="48" viewBox="0 0 221 48" fill="none" xmlns="http://www.w3.org/2000/svg">
<path fill-rule="evenodd" clip-rule="evenodd" d="M45.6045 16.6997C44.9912 15.2637 44.3099 13.6686 41.4678 14.6453V6.89655C41.4678 2.89523 34.7211 0 26.5015 0C18.2819 0 11.5352 2.89523 11.5352 6.89655V41.1034C11.5352 45.1048 18.2819 48 26.5015 48C34.7211 48 41.4678 45.1048 41.4678 41.1034V20.4599C44.0031 20.7935 44.5501 22.7863 44.0766 24.8474L46.6854 25.2612C47.2707 21.4816 45.9849 18.9679 41.4678 18.7711V17.1948C43.2034 16.3589 44.2646 17.7252 45.3527 19.1262C46.2449 20.275 47.1553 21.4471 48.4704 21.4471C50.3927 21.4471 51.903 20.4816 53.0015 18.5505L50.6673 15.3781C50.2096 17.4931 49.1112 18.5505 47.3719 18.5505C46.395 18.5505 46.0149 17.6607 45.6045 16.6997ZM30.4913 25.737C29.1607 25.4131 27.7928 25.0801 26.4464 25.0801C25.0783 25.0801 23.6961 25.42 22.3566 25.7494C18.8592 26.6094 15.6525 27.398 13.7467 21.879C11.422 15.1465 16.7288 16.6302 21.5673 17.9829C23.4448 18.5078 25.2517 19.013 26.515 19.0109C27.7291 19.0088 29.4723 18.5356 31.2951 18.0407C36.092 16.7385 41.44 15.2867 39.1463 21.879C37.2329 27.378 33.9912 26.5889 30.4913 25.737ZM19.7672 20.7469C19.1778 20.4767 18.5942 20.2286 18.0435 20.049C17.9667 21.0237 18.3872 21.9303 19.3253 22.8138C20.1442 23.585 20.9158 23.675 21.7434 23.0086C22.016 22.7081 22.2523 22.369 22.4521 21.9914C22.1155 21.8503 21.765 21.6901 21.4071 21.5219C21.4164 21.5796 21.4212 21.6387 21.4212 21.699C21.4212 22.3085 20.9294 22.8025 20.3227 22.8025C19.7161 22.8025 19.2243 22.3085 19.2243 21.699C19.2243 21.2932 19.4423 20.9386 19.7672 20.7469ZM14.8305 21.0094C15.185 19.9412 15.9705 19.6619 16.9652 19.7909C16.7975 21.1648 17.3415 22.458 18.574 23.6188C18.9292 23.9533 19.2885 24.1983 19.6492 24.3556C19.0729 24.5544 18.4277 24.6804 17.7139 24.7335C20.5047 25.2592 22.5061 24.4911 23.7181 22.4292C24.8822 22.7109 25.6776 22.4358 25.6776 20.8715C25.2724 22.4999 23.4268 21.3818 21.3658 20.1332C18.539 18.4205 15.307 16.4624 14.8305 21.0094ZM31.5882 21.4993C31.227 21.6858 30.8729 21.8604 30.5312 22.0068C30.7318 22.3874 30.9693 22.7289 31.2437 23.0312C32.0712 23.6977 32.8429 23.6076 33.6618 22.8364C34.644 21.9114 35.0588 20.9611 34.9294 19.9338C34.3367 20.111 33.7186 20.3947 33.0999 20.7084C33.4899 20.8778 33.7628 21.2677 33.7628 21.7217C33.7628 22.3311 33.271 22.8251 32.6644 22.8251C32.0577 22.8251 31.5659 22.3311 31.5659 21.7217C31.5659 21.6455 31.5736 21.5712 31.5882 21.4993ZM27.573 21.7217C27.9878 22.3328 28.5642 22.4964 29.2404 22.4028C30.4495 24.5015 32.4604 25.286 35.2732 24.7562C34.5593 24.7031 33.9142 24.5771 33.3378 24.3782C33.6986 24.2209 34.0578 23.976 34.413 23.6414C35.666 22.4614 36.2075 21.1445 36.0129 19.745C36.8514 19.7257 37.595 20.0648 38.1566 21.032C37.6226 16.0912 34.565 18.0921 31.712 19.959C30.1048 21.0107 28.5626 22.0199 27.573 21.7217ZM27.0238 19.6527C27.0238 20.4218 27.4357 21.032 28.1223 21.17C27.4357 21.3079 26.6119 20.7562 27.0238 19.6527ZM39.5455 6.89655C39.5455 9.59882 33.7506 12.1379 26.5015 12.1379C19.2523 12.1379 13.4574 9.59882 13.4574 6.89655C13.4574 4.19428 19.2523 1.65517 26.5015 1.65517C33.7506 1.65517 39.5455 4.19428 39.5455 6.89655Z" fill="#1D1D1F"/>
<ellipse cx="26.5002" cy="6.89534" rx="6.45336" ry="2.75862" fill="#FF6633"/>
<path fill-rule="evenodd" clip-rule="evenodd" d="M80.8658 32.0046H80.2357C80.2357 31.8636 80.0224 31.7191 79.5962 31.5716C78.5331 30.4167 78.0016 27.416 78.0016 22.569C77.9359 22.569 77.9034 22.4249 77.9034 22.136C77.9034 22.0622 77.9359 22.0251 78.0016 22.0251L77.9034 21.4817V20.5045C77.9034 20.4373 77.9359 20.4041 78.0016 20.4041C77.9359 20.2631 77.9034 20.1522 77.9034 20.0715L78.0016 17.4736H78.1099C78.1099 17.3999 78.0741 17.3628 78.0016 17.3628C78.0933 16.3829 78.1658 15.8054 78.2183 15.6304C78.2183 15.5567 78.182 15.52 78.1099 15.52C78.1099 15.4458 78.1462 15.3384 78.2183 15.1979C78.2904 13.3721 78.3262 11.9252 78.3262 10.8576C78.3262 9.6761 78.1854 8.15544 77.9034 6.29608C78.2115 5.71863 78.5297 5.42969 78.8578 5.42969C79.2647 5.42969 79.5109 5.61126 79.5962 5.97353C80.1145 6.09487 80.5735 6.45714 80.9741 7.06165C80.9741 7.25588 81.0462 7.47062 81.1904 7.70588L81.3973 7.60505H81.5057C81.6435 8.59191 81.7121 9.13226 81.7121 9.2261H81.9289V9.01485C82.2305 9.01485 82.4075 9.5181 82.46 10.5255C82.5585 10.5255 82.6997 11.0322 82.8832 12.0457C82.9557 12.0457 82.9915 12.0828 82.9915 12.1566C82.9915 12.2303 82.9557 12.2674 82.8832 12.2674L83.1984 14.5432C83.1263 14.9329 83.0901 15.2581 83.0901 15.52V16.7081C83.0901 16.8761 83.0572 17.0241 82.9915 17.1515C83.0572 17.2855 83.0901 17.3929 83.0901 17.4736C82.8341 20.1453 82.6242 21.4817 82.46 21.4817L82.5683 22.2469V24.2001C82.5683 24.3611 82.5325 24.5056 82.46 24.633C82.5325 24.7609 82.5683 24.905 82.5683 25.0665V25.1769C82.5683 25.3183 82.4962 25.3886 82.352 25.3886C82.352 25.3148 82.3158 25.2777 82.2437 25.2777V25.3886L82.46 25.7107V25.9324L82.0372 29.4063L81.5057 30.2722C81.2693 30.2722 81.056 30.3796 80.8658 30.5948C80.8658 30.6681 80.9016 30.7052 80.9741 30.7052L80.8658 31.7933V32.0046ZM88.1483 35.8419C91.5321 37.0762 93.8587 37.7274 95.1275 37.7942C95.1275 37.7942 98.6956 38.5964 100.352 37.6279C103.338 35.882 102.573 24.0472 102.573 24.0472L102.805 20.6641C102.839 18.2814 102.617 15.7294 102.141 13.0088L102.094 12.8826C101.808 12.1236 100.999 9.97973 101.091 9.51534C101.244 9.17751 101.382 9.02038 101.504 9.04569L101.813 9.10898C101.84 8.97106 101.89 8.90908 101.96 8.92348L102.481 9.03129L102.503 8.92261L103.205 9.17969L103.186 9.27877C102.979 9.23599 102.863 9.28706 102.834 9.43241L103.068 9.36737L103.164 9.38701L103.143 9.49569L102.878 9.77023C102.857 9.87542 102.939 10.0016 103.125 10.1495L103.337 10.1932C103.375 10.002 103.505 9.88197 103.729 9.83221L103.749 9.73357L104.164 9.81868C104.142 9.93042 104.522 10.3756 105.307 11.153C105.925 11.9242 106.499 13.0381 107.029 14.4963C107.54 16.6625 107.747 17.9959 107.649 18.4961L107.542 18.4739C107.667 19.6777 107.75 21.0949 107.791 22.7264C107.693 22.8504 107.636 22.9512 107.621 23.0306C107.833 23.0738 107.889 23.7119 107.787 24.9445L107.64 25.1296L107.51 27.9889C107.271 28.4878 107.142 28.7898 107.121 28.895L107.101 29.5589L107.197 29.5785L107.431 29.5135L107.388 29.7309L107.242 29.9164C107.312 29.9308 107.341 29.9744 107.327 30.0469C107.256 30.0325 107.213 30.0608 107.199 30.1333L107.407 30.1765C108.303 28.8757 108.951 27.8271 109.35 27.0306C109.35 26.8761 109.563 26.6247 109.99 26.2755L111.574 22.7004C111.502 22.6606 111.466 22.4053 111.466 21.9352C111.965 20.8545 112.283 20.3142 112.421 20.3142C112.939 19.1593 113.789 16.6989 114.97 12.933L115.924 10.6573C115.852 10.5159 115.816 10.4085 115.816 10.3347C116.079 10.3347 116.466 10.0091 116.978 9.35791H117.411L117.509 9.79089H117.617C117.762 9.79089 117.834 9.71713 117.834 9.56917L118.887 9.68003H119.103C119.103 9.89521 119.172 10.0026 119.31 10.0026H119.419C119.419 9.7874 119.491 9.68003 119.635 9.68003H119.743C119.881 9.70011 119.95 9.77387 119.95 9.90176L120.166 9.79089H120.265V10.2239H120.481C120.619 10.2239 120.688 10.1501 120.688 10.0026V9.90176L120.59 9.68003L121.121 9.56917H121.328L121.22 9.79089V10.1134C121.364 10.1134 121.436 10.2575 121.436 10.5464H122.283C122.283 10.6202 122.246 10.6573 122.174 10.6573C122.207 11.0196 122.315 11.2007 122.499 11.2007V11.8449C122.538 12.6175 122.748 13.1609 123.129 13.4764C123.129 13.5101 123.237 13.8728 123.454 14.5641L123.661 14.4533H123.769L124.192 16.0843C124.402 16.0843 124.507 16.2991 124.507 16.729C124.435 16.729 124.399 16.7661 124.399 16.8399L124.615 16.9507V16.8399C124.543 16.8399 124.507 16.8032 124.507 16.729H124.832C124.838 17.1384 125.048 17.9341 125.462 19.1161C125.389 19.5119 125.353 19.8005 125.353 19.9816L125.57 20.0924C125.57 20.0187 125.606 19.9816 125.678 19.9816C125.678 20.1295 125.888 20.5992 126.308 21.3914C128.493 21.1766 129.802 21.0693 130.235 21.0693V21.291H130.018L130.127 21.8248L128.011 22.4791L128.109 22.7004C128.109 23.043 127.794 23.2577 127.164 23.345V23.4559H127.371V23.6776L127.164 23.9997V24.211C127.729 26.0437 128.188 27.6717 128.542 29.0951C128.542 29.2094 128.611 29.3535 128.749 29.528V29.6389C128.749 29.7127 128.713 29.7493 128.64 29.7493L129.596 32.5694C129.53 32.5694 129.497 32.606 129.497 32.6798C129.799 32.6798 130.114 33.7976 130.442 36.0332C130.206 36.0332 130.032 36.2143 129.92 36.5766H129.28C129.28 36.7983 129.103 36.9092 128.749 36.9092C128.5 36.6608 127.863 36.3688 126.84 36.0332C126.84 35.9193 126.311 35.7041 125.255 35.389C125.255 35.3082 125.042 35.1266 124.615 34.8451V34.6234L125.353 34.7343H125.678C125.816 34.7343 125.885 34.664 125.885 34.5226C125.885 34.2943 125.216 32.5218 123.877 29.2059C123.877 28.7625 123.522 27.6416 122.814 25.8425C121.456 26.279 119.973 26.6046 118.365 26.8193C118.365 26.7451 118.329 26.7085 118.257 26.7085C118.257 26.9232 118.044 27.0672 117.617 27.1414C116.417 27.4234 115.816 27.8228 115.816 28.3395C115.37 29.7899 114.947 30.7999 114.546 31.3708V31.703C114.757 31.703 114.862 31.7737 114.862 31.9147V32.0255L114.655 31.9147H114.438C114.229 32.4786 114.124 32.8409 114.124 33.0019L113.907 32.8915C113.907 33.0796 113.694 33.2974 113.267 33.5458C113.267 33.6802 112.88 34.3314 112.106 35.4994L111.889 35.6002H111.683L111.259 35.2781H111.151C111.013 35.2982 110.945 35.3719 110.945 35.4994C111.01 35.6334 111.043 35.7408 111.043 35.8215L110.836 35.9324C110.744 35.8586 110.567 35.8215 110.305 35.8215C110.305 36.0362 110.163 36.1436 109.881 36.1436L108.179 34.956C107.743 34.956 107.318 34.4326 106.904 33.3861C106.869 33.8592 106.757 34.5772 106.568 35.5403L106.401 36.3888C106.304 36.8829 106.188 37.1155 106.053 37.088L105.95 38.1757L105.826 38.8077C105.446 39.9896 104.981 40.7055 104.43 40.9547C104.284 41.0712 104.021 41.1598 103.646 41.2222C103.637 41.2248 103.63 41.2277 103.622 41.2307L103.608 41.2357L103.601 41.2384C103.443 41.3708 103.43 41.4131 103.415 41.4615C103.402 41.5035 103.387 41.5501 103.275 41.6644C103.194 41.7006 103.008 41.7194 102.721 41.722V41.7246C102.547 41.8032 102.326 41.8224 102.058 41.7818C101.736 42.1681 101.489 42.4007 101.314 42.4788L100.266 42.467C99.3116 42.5814 98.1235 42.6028 96.702 42.5312C95.6087 41.9887 94.3135 41.5858 92.8161 41.3209C92.0713 40.7395 91.4084 40.4475 90.8265 40.4453C90.6865 40.1197 89.6904 39.4205 87.8386 38.3472C87.2208 37.9945 86.8488 37.8461 86.7226 37.9033C86.2563 37.4018 85.9329 37.1914 85.7525 37.2726L85.5823 36.8763C87.3492 37.5847 88.2989 37.909 88.4307 37.8492L88.3872 37.7484L87.5003 37.311L87.4606 37.2189L87.56 37.1744C87.5783 37.2176 88.141 37.4424 89.2485 37.8501C90.3551 38.2573 91.2893 38.462 92.0504 38.4642C92.6673 38.5829 93.0631 38.6025 93.2372 38.524L93.3362 38.4795C93.4445 38.431 93.4795 38.338 93.442 38.201C90.8388 37.5314 89.4558 37.0064 89.2916 36.6258L89.1461 36.8121C88.9481 36.9016 88.7498 36.7157 88.5514 36.2548L88.3624 36.3399L88.4456 36.5332L88.3462 36.5782C88.2302 36.308 88.0834 36.0584 87.9064 35.8301L88.1048 35.7411L88.1483 35.8419ZM107.272 30.3716L107.277 30.365C107.273 30.3644 107.268 30.3637 107.264 30.3629C107.266 30.3643 107.268 30.366 107.269 30.3679L107.272 30.3716ZM69.6073 33.671C69.6073 34.1743 70.2438 34.4628 71.5168 34.5365C72.7898 34.4763 73.4263 34.2245 73.4263 33.7819C74.4825 32.2573 75.0107 31.0627 75.0107 30.1967C75.5094 27.182 75.8276 24.9403 75.9654 23.4699V23.369L75.5426 23.5803V23.369L75.6506 22.8256C75.5785 22.8256 75.5426 22.7885 75.5426 22.7148H75.6506C75.6506 19.2841 75.7918 16.8237 76.0738 15.3332V15.2324H75.8673C75.8673 15.5217 75.7589 15.6658 75.5426 15.6658C75.5426 15.7395 75.5785 15.8469 75.6506 15.9879L75.5426 17.0756C75.5426 17.1493 75.5785 17.2567 75.6506 17.3977C75.6506 17.4915 75.5094 17.8171 75.2274 18.3745H75.119C75.119 17.6495 75.0141 17.2868 74.8042 17.2868C74.8042 17.1458 74.9091 17.0756 75.119 17.0756V16.31C75.119 15.8404 75.1553 15.1189 75.2274 14.1451H75.0107C75.0107 14.3062 74.9782 14.4502 74.9125 14.5781L75.0107 14.7994C74.8272 14.8264 74.686 15.0045 74.5875 15.3332L74.6958 15.7766C74.6958 15.8439 74.66 15.877 74.5875 15.877C74.5875 16.1455 74.6237 16.3266 74.6958 16.4209C74.6237 16.4209 74.5188 16.6758 74.381 17.1864C74.4531 17.3069 74.4894 17.4514 74.4894 17.619V17.7202L74.2726 18.052L74.381 18.2636H74.2726C74.2726 18.5054 74.3089 18.687 74.381 18.8075C74.3349 19.2239 74.23 19.549 74.0662 19.7843L74.1647 20.0056H74.0662C74.0662 20.583 73.9216 20.8715 73.6327 20.8715V20.9824L73.7411 21.6271C73.387 22.2783 73.2096 22.9662 73.2096 23.6911H73.0031C73.0031 23.6174 73.0389 23.5803 73.1114 23.5803C73.1114 23.3991 73.0752 23.1106 73.0031 22.7148L73.2096 22.3926L73.1114 22.1709C73.2492 22.1709 73.3179 21.9898 73.3179 21.6271L73.2096 21.4154C73.2821 21.4154 73.3904 21.2343 73.5346 20.8715C73.4625 20.7441 73.4263 20.5996 73.4263 20.4386C73.4263 20.3447 73.4954 19.9454 73.6327 19.2405V18.9183L73.5346 18.2636L73.6327 18.052L73.5346 17.5081L73.7411 16.9647C73.669 16.8373 73.6327 16.6928 73.6327 16.5317L73.8495 16.2096H73.6327L73.9578 13.823L73.8495 13.6013C74.3349 12.6952 74.9714 12.081 75.7589 11.7585V11.5372C75.7589 11.3692 75.4407 11.2251 74.8042 11.1038C74.1481 11.5267 73.6528 12.1077 73.3179 12.8462V13.0574H73.5346V13.1683H73.3179L73.4263 13.39C73.4263 13.6986 73.3542 13.9875 73.2096 14.256L73.3179 14.4677C73.1997 15.2463 73.059 15.716 72.8947 15.877L73.0031 16.0988C72.931 16.0988 72.8947 16.1359 72.8947 16.2096V16.31H73.0031V17.5081C73.0031 17.7233 73.0722 17.8307 73.2096 17.8307C73.0982 17.9922 72.9933 18.3173 72.8947 18.8075C72.8947 20.4722 72.7535 21.305 72.4715 21.305V21.5162H72.6784C72.6784 21.5904 72.6456 21.6271 72.5799 21.6271L72.6784 22.1709C72.6059 22.1709 72.501 22.2076 72.3632 22.2818C72.4353 22.7785 72.5078 23.1041 72.5799 23.2582C72.4421 23.3324 72.3337 23.369 72.2548 23.369V24.4467C72.1175 24.4467 72.0483 24.5911 72.0483 24.8796H71.94C71.8022 24.8796 71.6973 24.6278 71.6252 24.1246C71.763 23.661 71.8679 23.0102 71.94 22.1709C71.8679 22.0435 71.8316 21.899 71.8316 21.7379C71.8316 21.2277 71.9042 20.8283 72.0483 20.5398C71.9763 20.4054 71.94 20.298 71.94 20.2173C71.7105 20.2173 71.5334 21.0867 71.4089 22.8256C71.481 22.8256 71.5168 22.8588 71.5168 22.926C70.9524 26.9878 70.3163 29.4111 69.6073 30.1967C69.4764 29.5451 69.3352 29.2195 69.1842 29.2195C67.9931 24.7516 65.9522 20.8675 64.3577 17.8327C63.5805 16.3535 62.9093 15.076 62.4942 14.0312C62.068 13.507 61.8547 13.1814 61.8547 13.0539H61.6478V13.1648L61.7464 13.3865C61.5625 13.1648 61.2805 13.0539 60.9 13.0539V12.9536H61.1163V12.7318C60.5519 12.7318 60.2699 12.5874 60.2699 12.2988L59.9721 12.3093C59.5391 12.6716 59.2209 12.8527 59.0174 12.8527C59.0174 12.504 58.8045 12.1779 58.3779 11.8763C58.1676 11.9837 58.0627 12.0911 58.0627 12.1985C57.9842 12.1985 57.8758 12.1614 57.738 12.0876C57.6199 12.0876 57.5512 12.1614 57.5315 12.3093L57.6395 12.521C57.5674 12.521 57.5315 12.5577 57.5315 12.6314L57.3148 12.521H57.2167C57.0917 12.521 57.0196 12.5948 57 12.7419V12.8527L57.2167 13.6083C57.8988 13.6083 58.6761 15.8871 59.5489 20.446H59.4406C59.5131 21.1439 59.6176 21.6843 59.7558 22.067H59.6475C59.6475 22.3084 59.6833 22.4895 59.7558 22.6109L59.6475 23.1547C59.7196 23.7854 59.7558 24.1481 59.7558 24.242C59.6833 24.7522 59.6475 25.0411 59.6475 25.1079C59.7917 25.6854 59.8642 26.3536 59.8642 27.1118C59.8642 27.7564 59.7917 28.824 59.6475 30.3141C59.6475 31.7444 59.9329 32.7208 60.5037 33.2446V33.0229L60.3953 32.8016C60.4678 32.8016 60.5037 32.768 60.5037 32.7007V32.5899H60.2874V32.4795C60.3595 32.4795 60.4644 32.4424 60.6022 32.3686C60.9567 33.0464 61.1338 33.6274 61.1338 34.1105C61.8423 34.2314 62.1964 34.52 62.1964 34.9769H62.3048C62.3048 34.7552 62.3376 34.5034 62.4033 34.2214H62.62C62.62 34.9398 62.8329 35.2991 63.2595 35.2991L64.4207 34.8661C64.3486 34.3489 64.3128 34.0604 64.3128 34.0001C64.3128 33.7849 64.3849 33.6776 64.5291 33.6776L64.4207 33.1337V32.3686L64.3128 32.1573H64.4207C64.4207 32.036 64.3849 31.603 64.3128 30.858L64.1059 30.9588C64.2437 30.3813 64.3128 30.0221 64.3128 29.8812V29.2269L64.2142 29.0052C64.2799 29.0052 64.3128 28.9515 64.3128 28.8441C64.3128 28.1322 64.2799 27.5015 64.2142 26.9507C64.2578 26.6871 64.3956 26.7215 64.6272 27.0546C65.7428 29.7738 66.6254 31.3276 67.2751 31.7169C67.8391 32.0596 68.1215 32.3847 68.1215 32.6938C68.6855 33.1839 68.9679 33.4724 68.9679 33.5602C69.04 33.5602 69.0758 33.5231 69.0758 33.4493C69.2533 33.5968 69.4303 33.671 69.6073 33.671ZM97.3635 34.7862C97.3362 34.6435 97.1608 34.5798 96.8379 34.5955C96.8673 34.75 96.5747 34.9071 95.9599 35.0682C95.6707 34.7247 95.3337 34.4929 94.948 34.3729C94.931 34.2838 94.8171 34.2079 94.6059 34.145L94.5189 34.1629L94.5564 34.3589C94.021 33.96 93.745 33.7164 93.728 33.6274C92.4644 31.7938 91.7485 30.4403 91.5809 29.566C91.3377 28.6145 91.0724 27.7355 90.7848 26.9284L90.8446 26.722L90.3207 25.0302L90.4167 25.011L90.2832 24.8343L89.9508 23.1037L89.6804 22.167L89.2969 22.2442C89.3267 22.3988 89.2627 22.7418 89.1053 23.2739L89.2969 23.2355C89.2491 23.9923 89.2422 24.4598 89.2768 24.6383C89.3348 24.6265 89.3702 24.6531 89.3826 24.719C89.1791 24.7596 89.1407 25.2336 89.2666 26.1406L89.4547 26.6033C89.4223 26.9677 89.3463 27.2484 89.2273 27.4457C89.2397 27.5107 89.2781 27.5373 89.3421 27.5242C89.3899 28.4657 89.3758 29.0671 89.2994 29.3299C89.3805 29.4373 89.4274 29.5263 89.4415 29.5974C89.2542 30.006 89.1441 30.9575 89.1113 32.452C89.0486 33.132 88.985 33.4781 88.921 33.4908L88.6424 33.5466C88.5051 34.3091 88.2909 34.7199 88.0004 34.7779C87.8584 34.5409 87.741 34.4318 87.648 34.4506L87.4561 34.489L87.0026 34.6732C86.9476 34.3877 86.6293 34.2541 86.0474 34.272L86.0508 33.7714C85.989 33.4502 85.8337 33.3149 85.5837 33.3651L85.472 32.7854C85.4118 32.4699 85.2245 32.3442 84.911 32.4074C84.6324 30.9566 84.6738 28.4535 85.0351 24.898C85.0227 24.8321 84.9843 24.8063 84.9204 24.819L84.9186 23.819L85.1294 23.8788L85.018 23.2988C85.2326 23.2555 85.3026 22.9422 85.2267 22.3582L85.0982 21.6895C85.2433 21.6602 85.2936 21.4184 85.2488 20.9645L85.0863 20.5896C85.1076 20.3879 85.1507 20.2806 85.2143 20.267C85.2019 20.202 85.1635 20.1754 85.0995 20.1885C85.062 19.6464 85.0722 19.1811 85.1307 18.7926C85.0428 18.6809 84.992 18.5892 84.9779 18.5181C85.0889 18.4339 85.1759 18.3854 85.2399 18.3728C85.1452 18.2252 85.0223 17.9162 84.8721 17.4461C84.9532 17.4295 85.0411 17.2113 85.1354 16.791C85.0475 16.6793 84.9976 16.5907 84.9848 16.5247L85.0808 16.5055L84.9472 16.3288C85.0121 14.6239 84.9434 12.7414 84.7412 10.6826C84.9438 10.5124 85.1819 10.3998 85.4549 10.3448L85.7339 10.2885C85.7979 10.2758 85.8363 10.302 85.8486 10.3675L86.0218 10.2309C86.7189 10.4984 87.1161 10.8847 87.2129 11.3901L87.3857 11.2535L87.6647 11.1972L87.6839 11.2958L87.6323 11.5001L88.5652 11.3129L89.7136 11.6839L89.8369 11.8541L89.5579 11.91L89.5767 12.0077C89.8335 12.6541 90.2187 13.3084 90.7324 13.9714C91.5416 15.1359 92.0877 16.4558 92.3705 17.9306L92.629 19.2776C92.821 19.2387 93.2007 20.1937 93.7676 22.1421L93.8602 22.624C93.873 22.689 93.847 22.7283 93.783 22.7409L93.9152 22.9094C93.972 23.2067 93.94 23.7134 93.8175 24.4292C94.1473 24.7954 94.3644 25.2489 94.4681 25.7901L94.5061 25.9861L94.6887 25.9494C94.8166 25.9237 94.8939 25.4759 94.9199 24.6064L95.0159 24.5872L94.8823 24.41L94.8273 24.1246C95.0824 23.5977 95.1451 22.0539 95.0154 19.4923C95.1242 19.1802 95.2002 18.5692 95.2428 17.6591C95.5329 16.3406 95.8238 15.4825 96.1156 15.0844L96.2116 15.0652L96.2492 15.2616L96.1894 15.4676L96.3998 15.5274L96.4957 15.5082L96.477 15.41L96.285 15.4484L96.3452 15.2424L96.3264 15.1438C96.3136 15.0787 96.2756 15.0521 96.2116 15.0652C96.2539 14.9391 96.2611 14.8051 96.2338 14.6628L96.4168 14.6257L96.4219 15.1246C96.6254 15.0835 96.7952 14.6174 96.9322 13.7252L96.913 13.627L97.1152 13.6886L97.0964 13.5904C97.0324 13.6035 96.994 13.5768 96.9812 13.5118C97.0802 13.4917 97.1962 13.404 97.3289 13.2473C97.3404 13.3067 97.3754 13.3307 97.4334 13.3189C97.7278 12.463 98.0609 11.9977 98.4329 11.923L98.5289 11.9038L98.6023 12.2875L97.9419 13.4206L97.7397 13.359L97.4522 13.4171L97.471 13.5153L97.8459 13.4398L97.8835 13.6362C97.5175 14.0862 97.3421 14.3533 97.3583 14.4362C97.1484 15.3864 96.9049 17.4981 96.628 20.7707L96.6468 20.8689L96.7338 20.8515C96.9812 20.1907 97.1088 19.3312 97.1173 18.2732L97.4253 16.8128L97.5296 16.7917C97.5415 16.5244 97.5968 16.3809 97.6963 16.3611L97.7918 16.3414C97.8226 16.502 97.9177 16.65 98.0764 16.7849L98.0996 16.9063C98.1428 16.8808 98.1804 16.8647 98.2124 16.8582L98.2316 16.9564C98.1365 17.4693 98.0644 18.1139 98.014 18.8895L98.11 18.8703C98.2555 18.8415 98.3459 18.292 98.3822 17.2227C98.7597 17.1467 98.9918 16.5007 99.0784 15.2856L99.2704 15.2468C99.2964 15.3838 99.2516 15.8251 99.1351 16.571C99.2921 16.5391 99.4094 16.6483 99.4875 16.8984L99.4845 17.3994C99.5848 17.5766 99.6671 17.6591 99.7311 17.646L99.784 19.4325C99.822 19.6285 99.9337 19.7079 100.12 19.6708L100.137 19.7599C100.182 22.0417 100.105 24.6845 99.903 27.6896C99.6948 28.8061 99.2891 30.4189 98.6863 32.5283C98.2222 33.8199 97.9581 34.4719 97.8941 34.485L97.3635 34.7862ZM97.7009 17.2576L97.6485 16.9847C97.6817 16.9847 97.7153 16.9872 97.7494 16.9923L97.7969 17.2384L97.7009 17.2576ZM97.6777 16.104L97.7737 16.0848C97.737 15.8949 97.7801 15.7875 97.9021 15.7627L97.8453 15.4685L97.7583 15.4859C97.7963 15.6819 97.7191 15.7998 97.5271 15.8382C97.615 15.9504 97.6653 16.039 97.6777 16.104ZM71.8193 20.034H71.9276C71.9276 19.7389 71.8918 19.45 71.8193 19.168L71.9276 18.6242V18.5238H71.7211C71.7211 18.7184 71.6486 18.9332 71.5044 19.168L71.6128 19.3897C71.5407 19.3897 71.5044 19.4264 71.5044 19.5006V19.7118C71.6162 19.9266 71.7211 20.034 71.8193 20.034ZM115.018 17.4082C115.169 17.3746 115.31 17.1934 115.441 16.8643C115.375 16.7369 115.343 16.5924 115.343 16.4313C115.507 16.4313 115.825 15.8168 116.297 14.5886L116.189 14.3668V14.256C116.576 13.8064 116.786 13.1923 116.819 12.4132H116.396V12.6349H116.612C115.549 14.9377 115.018 16.5287 115.018 17.4082ZM95.906 28.4185C95.9069 28.7703 95.8429 29.1134 95.7145 29.4482C95.604 29.4704 95.528 29.4207 95.4862 29.2993L95.3941 28.8179L95.4901 28.7987L95.9073 26.9175C95.8949 26.8525 95.8446 26.7639 95.7567 26.6517C95.8557 26.6316 95.9679 26.5413 96.0937 26.3802L96.1129 26.478L95.9845 26.8006L96.022 26.9965L96.2051 26.9599L96.1505 26.674L96.2464 26.6552L96.3556 27.2257C96.1778 27.9965 96.0276 28.3941 95.906 28.4185ZM118.004 23.3904C118.365 23.3904 119.533 23.1019 121.508 22.5245V22.414C121.508 22.2591 121.012 20.7053 120.021 17.7512V17.6508C119.687 18.1004 119.333 18.8956 118.959 20.0375C118.801 21.0374 118.519 22.0107 118.112 22.9574H118.004V23.3904ZM127.491 28.7668V28.8777C127.281 28.8777 126.963 28.0449 126.536 26.3802C126.818 26.3802 126.959 26.6351 126.959 27.1458H127.176L127.382 27.0349C127.382 27.1087 127.419 27.1458 127.491 27.1458L127.382 27.6892C127.455 28.3203 127.491 28.6796 127.491 28.7668ZM96.269 24.2874C96.2225 24.0434 96.3117 23.661 96.5378 23.1403C96.5809 23.0203 96.5822 22.8531 96.5412 22.6392L96.5054 22.452L96.4094 22.4712C96.3279 22.4878 96.2277 22.971 96.1082 23.9212L95.8207 23.9792L95.8941 24.3624L95.9901 24.3432L96.0384 24.308C96.0358 24.5168 95.9634 24.9672 95.8207 25.6587L95.836 26.2576L95.8531 26.3471L95.9491 26.3274C96.0903 25.0211 96.1569 24.3437 96.1475 24.2961L96.1361 24.2368L96.165 24.2158C96.176 24.2747 96.211 24.2987 96.269 24.2874Z" fill="#1D1D1F"/>
<path fill-rule="evenodd" clip-rule="evenodd" d="M149.317 35.0762L147.183 34.8587L146.975 34.9675C146.105 34.7504 145.466 34.4311 145.058 34.0099C144.136 33.2523 143.675 32.6864 143.675 32.311C143.675 32.2455 143.602 31.9591 143.457 31.4519V31.3534L143.566 31.136C143.474 31.136 143.263 30.853 142.934 30.2867V29.9704C142.934 29.898 143.18 29.684 143.675 29.3283L143.566 28.7954C144.811 27.8738 145.664 27.4127 146.125 27.4127V27.5215C146.125 27.8044 145.875 28.3707 145.374 29.22V29.3283C145.526 29.3283 145.918 29.434 146.55 29.6446L148.359 29.437V29.5457C148.833 29.4734 149.294 29.3647 149.742 29.22L150.483 29.3283C151.511 29.1643 152.789 28.5253 154.318 27.4127C154.753 27.0506 155.177 26.4843 155.593 25.7142C155.948 25.3388 156.126 24.9831 156.126 24.6475C152.18 23.7982 150.052 23.2649 149.742 23.0479C149.742 23.1921 149.67 23.2649 149.525 23.2649C147.028 22.6656 145.575 22.0997 145.167 21.5664C144.864 21.5664 144.33 21.2111 143.566 20.4997C143.381 20.48 142.993 20.0189 142.4 19.117C142.229 19.117 142.051 18.8705 141.866 18.3761C141.583 18.3761 141.441 18.0208 141.441 17.3098C141.441 16.1249 141.793 15.0942 142.499 14.2188C142.927 13.4945 143.424 12.8923 143.991 12.4116C144.327 12.076 144.541 11.7233 144.633 11.3547C145.72 10.5714 146.359 10.1797 146.55 10.1797C148.151 10.3441 149.321 10.627 150.059 11.0285C151.692 11.8979 152.509 12.7142 152.509 13.4778V14.3275H152.292V14.4358L152.401 14.6533L151.867 14.7522C151.636 14.7522 151.106 14.4692 150.276 13.9025C149.05 14.4029 148.306 14.7586 148.042 14.9696C147.983 15.3052 147.522 15.7298 146.659 16.2431C146.659 16.3617 146.303 16.7174 145.592 17.3098C145.164 17.9549 144.949 18.3435 144.949 18.4754C146.372 19.1136 148.714 19.7523 151.975 20.3914C154.927 21.1024 156.735 21.8134 157.401 22.5244C159.535 23.5842 160.603 24.3975 160.603 24.9634H160.385C160.385 24.7789 159.997 24.4271 159.219 23.9065H159.002V24.0054C159.325 24.8748 159.822 25.4441 160.494 25.7142C160.494 25.8062 160.672 26.1256 161.028 26.6718C160.882 26.6919 160.81 26.7608 160.81 26.8794L160.919 27.8374C160.919 28.3776 160.494 28.8018 159.644 29.1117C159.644 29.342 159.325 29.6973 158.685 30.178C158.685 30.5337 158.115 31.0307 156.976 31.6693C156.976 31.8071 156.515 32.2322 155.593 32.9432C155.382 33.0288 155.276 33.1375 155.276 33.269H155.168L154.96 33.1607C154.96 33.6739 154.285 34.1713 152.934 34.6516C152.934 34.4345 152.862 34.3258 152.717 34.3258C152.486 34.6481 152.097 34.8622 151.551 34.9675L150.908 34.8587H150.701C150.543 34.8587 150.401 34.8951 150.276 34.9675L150.059 34.8587C149.933 34.9315 149.792 34.9675 149.634 34.9675L149.426 34.8587L149.317 35.0762ZM169.862 33.9012H169.645C168.914 33.9012 168.416 33.7959 168.152 33.5853L167.728 33.694C167.616 33.694 167.405 33.5523 167.095 33.269L166.878 33.3678C166.384 33.2557 165.923 32.8311 165.494 32.0935L165.277 32.2022H165.069C163.58 30.978 162.836 30.1617 162.836 29.7533C161.63 27.2646 161.028 24.4271 161.028 21.2406C160.975 21.2406 160.866 20.2133 160.701 18.1595H160.81C160.665 17.7969 160.593 17.5504 160.593 17.4185C160.646 16.9905 160.718 16.7764 160.81 16.7764L160.168 13.6953C160.299 13.6953 160.408 13.376 160.494 12.7373C160.777 12.7373 160.919 12.665 160.919 12.5203V12.4116H161.028L161.344 12.629C161.495 12.629 161.706 12.415 161.976 11.9869C162.055 11.9869 162.164 11.9505 162.302 11.8782V12.0957L162.836 11.9869C162.836 12.2044 162.869 12.3127 162.935 12.3127C163.033 12.2403 163.212 12.2044 163.468 12.2044C163.468 12.3683 163.682 12.4736 164.111 12.5203V12.629L164.002 12.8362C164.147 12.8362 164.219 12.9085 164.219 13.0532H164.318C164.391 13.0532 164.677 12.9809 165.178 12.8362H165.494V13.5866L165.277 13.9025L165.603 14.1199L165.277 15.7102C165.303 15.8548 165.376 15.9272 165.494 15.9272C165.422 16.7567 165.386 17.3594 165.386 17.7344V17.8431L165.494 18.8996H165.386L165.494 19.117V19.2258C165.494 20.3648 165.6 22.4191 165.81 25.388H165.702C165.774 25.5528 165.919 26.1222 166.137 27.0968L166.028 27.6302C166.166 27.8605 166.235 28.0711 166.235 28.262L166.137 28.4794C166.486 28.4794 166.661 28.8347 166.661 29.5457C166.779 29.5457 166.924 29.7563 167.095 30.178C167.444 30.178 168.294 29.3283 169.645 27.6302C170.429 26.3066 171.209 24.035 171.987 20.816V19.3242L171.878 18.5837H171.987L171.878 18.3761C171.878 18.2121 171.914 18.067 171.987 17.942C171.776 15.1635 171.671 13.498 171.671 12.9449C171.927 12.6025 172.247 12.3191 172.629 12.0957V11.7793H172.837V11.9869H173.153C173.516 11.493 173.835 11.246 174.111 11.246L174.22 11.4536L174.438 11.3547H174.645V11.6706H174.754L175.288 11.5623L175.93 11.9869V12.3127H176.354V12.0957C176.493 12.168 176.599 12.2044 176.671 12.2044C176.809 12.1316 176.915 12.0957 176.987 12.0957C177.488 12.5562 177.738 13.1226 177.738 13.7938C177.666 13.7938 177.629 13.8301 177.629 13.9025C177.768 13.929 177.837 14.0014 177.837 14.1199C177.626 14.2847 177.521 14.5313 177.521 14.8609H177.412L177.205 14.2188C177.06 14.2449 176.987 14.3173 176.987 14.4358V15.9272C176.987 16.5988 176.951 17.4151 176.878 18.3761L176.987 18.8996C176.546 21.7701 176.121 23.6865 175.712 24.6475C175.64 24.6475 175.604 24.6839 175.604 24.7562V25.7142L175.712 26.7711C175.429 26.7711 175.288 27.0575 175.288 27.6302H175.179C175.179 27.8605 175.32 28.6404 175.604 29.9704H175.495L175.604 30.178V30.7113C175.604 30.8693 175.568 31.011 175.495 31.136C175.568 31.2742 175.604 31.3795 175.604 31.4519C175.446 31.4519 175.268 31.0996 175.07 30.3954H174.971C174.971 30.4609 174.935 30.4939 174.863 30.4939C175.001 31.2447 175.179 31.9916 175.396 32.7356C175.323 32.8743 175.288 32.9796 175.288 33.0519C175.175 33.0519 174.928 32.3075 174.546 30.8201H174.438L174.329 31.0272V31.136H174.546V31.7776H174.754C174.754 31.8504 174.717 31.8863 174.645 31.8863L174.754 32.0935V32.4098L174.546 32.311C174.546 32.3769 174.51 32.4098 174.438 32.4098C174.22 31.9882 173.97 31.2083 173.686 30.0692H173.479C173.38 30.0692 173.239 30.3886 173.054 31.0272C172.916 31.0272 172.56 31.4189 171.987 32.2022L172.096 32.4098C171.905 32.6466 171.407 32.8606 170.603 33.0519C170.109 33.4603 169.862 33.7432 169.862 33.9012ZM176.137 35.6096H175.821C175.748 35.0895 175.676 34.7701 175.604 34.6516C175.676 34.5334 175.712 34.3558 175.712 34.1186H175.93V34.5428L175.821 34.7504C175.96 34.8228 176.065 34.8587 176.137 34.8587V34.9675L175.93 35.2838C176.068 35.3099 176.137 35.3827 176.137 35.5008V35.6096ZM201.08 37.8209L200.655 37.6137C200.517 37.6796 200.408 37.7126 200.329 37.7126L199.904 37.6137C199.766 37.6796 199.66 37.7126 199.587 37.7126C199.587 37.5285 199.337 37.3868 198.837 37.288C198.679 36.8727 198.395 36.5209 197.986 36.2311C197.565 35.4674 197.245 34.4042 197.028 33.0412L197.137 32.8238C197.064 32.6855 197.028 32.5802 197.028 32.5079H197.137C197.011 32.2776 196.87 31.2836 196.712 29.5252H196.82C196.689 29.0976 196.333 25.766 195.753 19.5314C195.681 19.5314 195.575 18.9621 195.437 17.823C195.437 17.7507 195.473 17.645 195.546 17.5067C195.546 16.7696 195.117 15.9529 194.261 15.0578C194.261 15.0111 194.083 14.5142 193.727 13.566C193.807 13.2501 194.057 13.0036 194.478 12.8259H194.587V13.0331C195.088 12.8948 195.371 12.8259 195.437 12.8259H195.546V13.4676H195.753L195.645 13.6748V13.7835C195.789 13.7835 195.862 13.8199 195.862 13.8922L196.712 13.3588H196.82V13.4676C196.748 13.599 196.712 13.7043 196.712 13.7835C196.784 13.7835 196.82 13.8199 196.82 13.8922C196.959 13.8199 197.064 13.7835 197.137 13.7835C197.756 13.8233 198.395 14.3892 199.054 15.4824C199.054 15.9499 199.301 16.6609 199.795 17.6154C200.295 22.1648 200.546 24.6471 200.546 25.0619H200.655C202.269 24.8444 203.475 24.7357 204.272 24.7357H204.697C205.336 24.7357 205.655 24.3474 205.655 23.5705H205.764L205.655 23.3531V23.2546C206.011 23.2546 206.367 21.1242 206.723 16.8646C206.577 16.8646 206.505 16.7957 206.505 16.6574V16.0154C206.887 16.0154 207.171 15.9101 207.355 15.6995H207.572L207.671 16.2328C207.605 16.2328 207.572 16.2658 207.572 16.3313L207.78 16.44C207.78 16.3676 207.816 16.3313 207.888 16.3313L207.78 16.1241V16.0154C208.247 16.0154 208.531 15.8018 208.629 15.3737H208.847C208.847 15.4525 208.883 15.5612 208.956 15.6995L209.163 15.5912H209.272C209.272 15.8279 209.308 16.0055 209.381 16.1241L209.588 16.0154C209.733 16.0355 209.806 16.1078 209.806 16.2328V16.3313H209.588V16.44H209.914L210.013 16.2328C209.947 16.0941 209.914 15.9862 209.914 15.9071H210.122C210.55 16.282 210.764 16.6014 210.764 16.8646H211.08L211.298 16.7559L211.189 16.5487C211.209 16.404 211.278 16.3313 211.396 16.3313C211.924 16.3313 212.21 16.44 212.257 16.6574V16.8646C212.257 17.0097 212.148 17.0821 211.93 17.0821C212.214 17.8196 212.355 18.2802 212.355 18.4647C212.006 19.8738 211.832 21.6447 211.832 23.7781L212.039 23.8869C212.039 23.8141 212.075 23.7781 212.148 23.7781C212.148 23.9228 212.184 23.9947 212.257 23.9947L212.681 23.7781V23.8869C212.681 24.0975 212.398 24.2387 211.832 24.3111V24.9531H212.573L213.956 24.6368C213.956 24.7032 213.993 24.7357 214.065 24.7357C214.065 24.5978 214.348 24.4925 214.915 24.4198V24.5285C214.915 24.6205 214.453 24.8675 213.531 25.269C213.531 25.552 212.892 25.8713 211.614 26.227V26.444L212.148 26.3358C212.22 26.3358 212.257 26.3717 212.257 26.444C212.395 26.3717 212.5 26.3358 212.573 26.3358H212.79V26.444C211.934 26.5494 211.505 26.691 211.505 26.8687C211.505 27.0797 211.469 27.185 211.396 27.185L211.505 27.402C211.367 28.0013 211.298 28.3536 211.298 28.4589L211.396 29.101C211.396 29.7529 211.186 31.3821 210.764 33.9894H210.547V33.7822H210.448V35.1644H210.122L209.697 34.8485C209.697 34.967 209.519 35.2864 209.163 35.8065C209.163 36.5637 208.952 36.9883 208.531 37.0808C208.531 37.2914 208.175 37.3967 207.464 37.3967H207.355C207.355 37.1861 207.249 37.0808 207.039 37.0808H206.93V36.2311C206.93 36.0667 206.894 35.925 206.821 35.8065C206.821 35.7341 206.857 35.6977 206.93 35.6977C206.93 35.5531 206.894 35.4803 206.821 35.4803C206.986 32.7874 207.128 31.4416 207.246 31.4416L207.147 31.2241C207.286 30.7366 207.355 30.3124 207.355 29.9502V29.101L207.464 28.5676C207.292 28.4294 207.15 28.3604 207.039 28.3604C205.991 28.5711 205.28 28.7453 204.904 28.8835V29.5252C204.72 29.5252 204.473 29.9169 204.163 30.7006L203.204 32.8238C203.066 32.8961 202.961 32.9325 202.888 32.9325V33.7822C202.888 33.953 202.71 34.2723 202.354 34.7397C202.354 35.161 202.282 35.372 202.137 35.372L202.246 35.589C201.679 36.1947 201.396 36.5504 201.396 36.6561V37.1891L201.505 37.3967C201.267 37.3967 201.126 37.5379 201.08 37.8209ZM206.189 23.7807C206.525 22.708 206.772 22.1382 206.93 22.0723C206.857 21.7894 206.752 21.5424 206.614 21.3318L206.821 21.0159H206.723C206.604 21.0159 206.459 21.2629 206.287 21.7564L206.396 22.2898C206.363 22.5727 206.258 22.7144 206.08 22.7144V22.8227L206.189 23.0307H205.971V23.5637C205.998 23.7088 206.07 23.7807 206.189 23.7807ZM208.847 32.5014C209.018 32.5014 209.124 32.1453 209.163 31.4343C209.097 31.2965 209.065 31.1912 209.065 31.1184H209.272V30.6942C209.272 30.5491 209.203 30.4768 209.065 30.4768L209.163 29.9434V28.8865C209.163 28.8142 209.2 28.7778 209.272 28.7778L209.163 28.5608C209.163 28.4884 209.2 28.3827 209.272 28.2449L209.065 27.2869C209.13 27.2869 209.163 27.2505 209.163 27.1782H208.956V27.929C208.956 28.0869 208.919 28.2282 208.847 28.3532C208.847 28.4259 208.883 28.4619 208.956 28.4619L208.847 28.9854V29.2024L208.956 29.9434H208.847L208.956 30.1608V30.368C208.956 30.5127 208.883 30.5855 208.738 30.5855C208.883 30.8158 208.956 31.0298 208.956 31.2271V31.7506L208.847 32.5014ZM208.106 33.4594C208.244 32.9261 208.313 32.6068 208.313 32.5014C208.313 32.4291 208.277 32.3927 208.205 32.3927L208.313 31.8594V30.6942L208.205 29.41H208.313L208.205 29.2024V28.4619C208.205 28.3896 208.241 28.3532 208.313 28.3532C208.241 28.2611 208.205 28.0107 208.205 27.6028C208.066 27.6293 207.997 27.7017 207.997 27.8202V28.5608C207.997 28.9691 207.961 29.2196 207.888 29.3112C207.961 29.6934 207.997 30.0123 207.997 30.2696V33.4594H208.106ZM203.313 30.7927C203.313 30.5624 203.56 30.0684 204.054 29.3112L204.588 28.2449V28.0274H204.479C204.071 28.482 203.751 29.0513 203.521 29.7362C203.475 29.7362 203.333 29.9139 203.096 30.2696V30.7927H203.313ZM200.862 32.5014C201.284 32.04 202.064 30.8684 203.204 28.9854C203.204 28.9195 203.241 28.8865 203.313 28.8865V29.2024H203.521C203.521 28.9062 203.593 28.5509 203.738 28.1361H203.629V28.2449C203.557 28.2449 203.521 28.2085 203.521 28.1361C202.354 28.5638 201.682 28.7778 201.505 28.7778C201.024 28.5672 200.741 28.4619 200.655 28.4619V28.7778C200.655 28.9358 200.688 29.0774 200.753 29.2024C200.753 29.2748 200.721 29.3112 200.655 29.3112C200.721 29.6339 200.79 30.6972 200.862 32.5014ZM217.665 37.0945H217.033C217.033 36.9562 216.819 36.8145 216.39 36.6698C215.323 35.5372 214.79 32.5943 214.79 27.8408C214.724 27.8408 214.691 27.6995 214.691 27.4162C214.691 27.3438 214.724 27.3074 214.79 27.3074L214.691 26.7745V25.8161C214.691 25.7506 214.724 25.7176 214.79 25.7176C214.724 25.5794 214.691 25.4707 214.691 25.3915L214.79 22.8437H214.898C214.898 22.7713 214.862 22.735 214.79 22.735C214.882 21.774 214.954 21.2077 215.007 21.0364C215.007 20.9637 214.971 20.9277 214.898 20.9277C214.898 20.8554 214.934 20.7496 215.007 20.6118C215.08 18.8213 215.116 17.4023 215.116 16.3552C215.116 15.1965 214.974 13.7051 214.691 11.8816C215 11.3153 215.32 11.0319 215.649 11.0319C216.058 11.0319 216.305 11.21 216.39 11.5653C216.911 11.6843 217.372 12.0396 217.774 12.6324C217.774 12.8229 217.847 13.0335 217.991 13.2642L218.199 13.1654H218.308C218.446 14.1332 218.515 14.6636 218.515 14.7556H218.732V14.548C219.035 14.548 219.213 15.0415 219.266 16.0295C219.365 16.0295 219.507 16.5265 219.691 17.5204C219.763 17.5204 219.8 17.5568 219.8 17.6291C219.8 17.7015 219.763 17.7378 219.691 17.7378L220.007 19.9697C219.935 20.352 219.899 20.6709 219.899 20.9277V22.0929C219.899 22.2577 219.865 22.4028 219.8 22.5278C219.865 22.6592 219.899 22.7645 219.899 22.8437C219.642 25.4638 219.431 26.7745 219.266 26.7745L219.375 27.5249V29.4404C219.375 29.5984 219.339 29.7401 219.266 29.8651C219.339 29.9905 219.375 30.1317 219.375 30.2901V30.3984C219.375 30.5371 219.302 30.606 219.157 30.606C219.157 30.5337 219.121 30.4973 219.049 30.4973V30.606L219.266 30.9219V31.1394L218.841 34.5467L218.308 35.3955C218.071 35.3955 217.857 35.5008 217.665 35.7119C217.665 35.7842 217.701 35.8202 217.774 35.8202L217.665 36.8873V37.0945ZM183.323 15.2633C184.309 14.8968 185.235 14.5904 186.1 14.3442H186.195V14.524C185.885 14.5416 185.731 14.6045 185.731 14.7136C185.175 14.7479 184.896 14.8712 184.896 15.0831H184.621C184.415 15.0831 184.2 15.1747 183.977 15.3579H183.323V15.2633ZM193.904 29.315H193.998C193.998 29.1832 193.907 28.997 193.723 28.7564V28.4816L193.809 28.2924L193.259 27.3648C192.239 26.3332 191.064 25.4082 189.734 24.5893C188.444 23.8274 187.796 23.3946 187.791 23.2919C187.281 23.074 185.922 22.2436 183.715 20.8001C182.506 20.1183 181.675 19.4081 181.222 18.6689C181.251 18.4227 181.342 18.2995 181.497 18.2995C181.497 17.8872 183.386 17.2195 184.991 16.5607C185.919 16.3086 186.384 16.0937 186.384 15.916C187.983 15.3835 188.877 15.0428 189.066 14.8939C189.995 14.6875 190.459 14.533 190.459 14.4298C190.597 14.4298 190.72 14.6477 190.829 15.0831L190.734 15.2633C190.734 15.3895 190.826 15.452 191.009 15.452V15.5466C190.826 15.5466 190.734 15.6387 190.734 15.8219C190.797 16.1309 190.984 16.532 191.293 17.0247H191.568L191.474 16.8359H191.749C192.018 16.0338 192.236 15.6327 192.402 15.6327V15.452C192.402 15.1485 192.494 14.8395 192.677 14.524C192.614 14.4157 192.583 14.292 192.583 14.155C192.554 13.9431 192.061 13.5421 191.104 12.9522L189.531 12.4882H189.436C189.012 12.4882 188.551 12.5824 188.052 12.7716C186.315 13.138 185.203 13.5074 184.716 13.8802L184.527 13.7856H184.346C184.031 14.0318 183.63 14.1863 183.143 14.2496L179.901 15.7273C178.566 16.4147 177.823 17.1253 177.674 17.8581C177.674 17.9497 177.829 18.3508 178.138 19.061L178.044 19.2502C178.044 19.302 178.167 19.5768 178.414 20.075C178.414 20.2411 178.569 20.4273 178.878 20.6336C178.878 20.8113 179.156 21.1807 179.712 21.7419C180.406 22.1601 180.93 22.5612 181.285 22.9447C181.904 23.0534 182.214 23.2084 182.214 23.4087C183.429 24.0735 184.108 24.5058 184.252 24.7066C185.816 25.5712 187.421 26.5879 189.066 27.7569C190.115 28.295 190.64 28.6674 190.64 28.8737C190.004 29.3831 188.121 29.7846 184.991 30.0765C184.991 30.0136 184.96 29.9819 184.896 29.9819C184.787 30.0448 184.664 30.0765 184.527 30.0765H180.916C179.93 30.0765 179.437 30.4459 179.437 31.1848V31.46C179.672 31.46 179.827 31.6779 179.901 32.1128L180.451 32.4826C180.715 32.6654 180.901 32.7574 181.01 32.7574C181.36 33.0036 181.606 33.1264 181.75 33.1264C181.75 33.4419 182.337 33.6598 183.512 33.78V33.8657L183.418 34.0544C183.922 34.0544 184.231 34.1148 184.346 34.2351H184.621L185.18 34.149L185.361 34.2351C186.249 34.1606 187.02 34.0694 187.674 33.9603C187.674 34.0232 187.705 34.0544 187.768 34.0544C188.989 33.9059 190.224 33.5964 191.474 33.1264C191.869 33.0352 192.21 32.6341 192.497 31.924H193.142L193.331 31.2794V30.996C193.331 30.8526 194.093 29.7217 193.904 29.315Z" fill="#1D1D1F"/>
</svg>
